<?xml version="1.0" standalone="no"?>
<!DOCTYPE svg PUBLIC "-//W3C//DTD SVG 20010904//EN"
 "http://www.w3.org/TR/2001/REC-SVG-20010904/DTD/svg10.dtd">
<svg version="1.0" xmlns="http://www.w3.org/2000/svg"
 width="1024.000000pt" height="1024.000000pt" viewBox="0 0 1024.000000 1024.000000"
 preserveAspectRatio="xMidYMid meet">
<metadata>
Created by potrace 1.11, written by Peter Selinger 2001-2013
</metadata>
<g transform="translate(0.000000,1024.000000) scale(0.100000,-0.100000)"
fill="#000000" stroke="none">
<path d="M7888 10005 c-2 -2 -30 -6 -63 -9 -33 -4 -67 -9 -75 -11 -8 -2 -32
-6 -52 -9 -21 -3 -59 -11 -85 -17 -27 -6 -55 -13 -63 -14 -8 -1 -22 -5 -30 -8
-55 -20 -186 -61 -192 -59 -5 1 -8 -2 -8 -7 0 -7 -14 -14 -43 -19 -20 -4 -225
-122 -254 -147 -7 -5 -24 -19 -39 -30 -77 -59 -175 -153 -233 -225 -20 -25
-38 -47 -41 -50 -3 -3 -23 -32 -45 -65 -98 -148 -217 -401 -225 -477 0 -4 -9
-28 -20 -53 -11 -25 -17 -45 -15 -45 3 0 0 -11 -5 -26 -6 -14 -12 -37 -15 -52
-3 -15 -7 -38 -10 -52 -3 -14 -8 -34 -10 -45 -3 -11 -7 -30 -10 -42 -3 -13 -7
-31 -9 -40 -5 -22 -17 -107 -22 -148 -1 -16 -5 -39 -7 -50 -4 -17 -13 -110
-21 -231 -2 -17 -6 -36 -10 -42 -3 -6 -2 -13 4 -17 6 -4 8 -11 4 -16 -3 -5 -7
-101 -8 -213 -1 -111 -5 -207 -9 -213 -4 -6 -3 -13 0 -17 10 -10 10 -457 0
-463 -4 -2 -4 -10 0 -16 10 -16 10 -458 0 -464 -4 -2 -4 -10 0 -16 10 -16 10
-348 0 -354 -4 -2 -4 -10 0 -16 10 -16 10 -297 1 -303 -5 -3 -5 -11 -1 -17 10
-16 10 -297 1 -303 -5 -3 -5 -11 -1 -17 10 -16 10 -297 1 -303 -5 -3 -5 -11
-1 -17 10 -16 10 -297 1 -303 -5 -3 -5 -11 -1 -17 10 -16 10 -297 1 -303 -5
-3 -5 -11 -1 -17 10 -16 10 -297 1 -303 -5 -3 -5 -11 -1 -17 10 -16 10 -297 1
-303 -5 -3 -5 -11 -1 -17 10 -16 10 -568 0 -574 -4 -2 -4 -10 0 -16 10 -16 10
-458 0 -464 -4 -2 -4 -9 0 -16 3 -6 8 -128 9 -271 2 -253 5 -332 20 -501 7
-91 12 -130 15 -130 2 0 4 -14 13 -80 12 -89 21 -138 30 -170 2 -5 7 -29 11
-53 4 -23 12 -45 16 -48 5 -3 7 -10 3 -15 -3 -5 0 -26 7 -47 7 -20 14 -39 14
-42 1 -3 4 -12 7 -20 3 -8 13 -38 21 -67 22 -71 74 -196 114 -271 18 -34 31
-62 28 -62 -3 0 5 -12 19 -27 14 -15 23 -30 21 -34 -3 -4 2 -12 10 -19 8 -7
15 -18 15 -24 0 -6 9 -18 19 -26 11 -7 18 -17 16 -20 -2 -4 10 -23 28 -43 18
-20 43 -50 57 -68 30 -40 154 -160 177 -173 9 -5 27 -20 39 -33 12 -12 25 -23
29 -23 4 0 29 -16 56 -35 94 -67 367 -186 479 -209 14 -3 57 -12 95 -21 39 -9
90 -18 115 -21 25 -3 61 -7 80 -9 19 -3 86 -7 147 -9 62 -3 117 -8 123 -11 5
-3 10 -1 10 5 0 7 6 8 19 1 10 -6 21 -8 23 -5 3 2 54 7 114 9 60 2 118 6 129
9 11 2 49 7 85 12 73 9 83 11 90 14 3 1 18 4 35 6 16 3 35 9 41 15 6 5 14 6
17 3 7 -7 207 54 222 67 5 5 15 9 22 9 42 0 297 150 397 232 78 65 226 220
226 238 0 4 4 10 8 12 4 2 23 26 42 53 19 28 37 52 40 55 9 9 30 44 40 67 5
12 21 40 35 63 14 22 22 40 18 40 -5 0 -3 4 3 8 9 6 94 194 94 208 0 3 6 20
13 37 15 35 36 96 42 124 2 10 13 50 23 88 28 100 57 236 68 315 3 25 8 54 10
65 2 11 7 40 10 65 3 25 8 63 10 85 3 22 7 58 9 80 1 22 6 85 11 140 10 126
10 783 -1 1015 -4 96 -8 213 -9 260 l-1 86 -657 0 -657 1 4 -111 c15 -426 19
-589 19 -881 0 -351 -7 -510 -29 -660 -11 -75 -46 -230 -61 -270 -23 -61 -67
-145 -76 -145 -4 0 -8 -6 -8 -13 0 -19 -79 -88 -139 -120 -28 -15 -51 -25 -51
-22 0 2 -12 0 -27 -6 -38 -14 -123 -23 -213 -21 -41 1 -84 2 -95 2 -21 0 -84
16 -125 32 -14 5 -27 10 -30 10 -11 0 -67 44 -97 75 -37 39 -100 162 -108 212
-3 19 -8 38 -11 43 -3 5 -8 24 -11 41 -2 18 -6 43 -9 57 -7 38 -17 159 -18
212 -1 27 -4 48 -7 48 -9 0 -5 5714 4 5728 5 7 4 12 -3 12 -6 0 -8 5 -3 13 4
6 8 37 9 67 6 139 25 258 59 370 7 21 27 69 37 85 6 11 16 29 22 40 32 60 115
120 195 144 70 20 80 22 186 25 219 7 358 -54 456 -199 18 -27 33 -51 32 -52
-1 -2 5 -20 14 -40 32 -77 66 -222 78 -335 3 -24 7 -59 10 -78 13 -90 19 -294
19 -620 0 -317 -3 -432 -19 -592 -3 -27 -1 -49 3 -49 25 -4 1295 -3 1300 1 4
3 7 34 8 70 1 36 5 144 9 240 12 276 13 660 2 660 -6 0 -6 5 0 13 11 13 13 47
4 47 -3 0 -7 35 -8 78 -2 76 -10 187 -13 187 -1 0 -3 20 -6 45 -4 50 -12 105
-14 105 -1 0 -3 14 -5 30 -4 48 -17 129 -21 136 -2 3 -6 21 -9 40 -22 129 -91
366 -142 487 -8 20 -14 37 -13 37 2 0 -24 52 -57 115 -57 112 -158 272 -175
278 -4 2 -8 7 -8 12 0 22 -158 182 -266 270 -108 87 -402 235 -509 256 -5 1
-37 9 -70 18 -69 19 -113 28 -137 28 -10 -1 -18 2 -18 6 0 4 -23 8 -51 9 -28
2 -63 6 -77 9 -25 6 -528 14 -534 9z"/>
<path d="M256 9870 c-11 -4 -13 -838 -12 -4692 1 -2577 4 -4689 8 -4693 3 -4
55 -6 115 -5 59 1 113 2 118 2 6 0 84 -1 175 -2 128 -1 364 -2 495 -1 6 0 98
0 205 1 l195 1 -1 1447 -2 1447 50 135 c27 74 51 142 53 150 2 8 12 36 24 63
11 26 21 51 22 55 1 4 5 17 10 30 5 13 9 28 9 33 0 5 4 17 9 27 9 16 21 46 27
67 8 31 69 191 74 195 3 3 6 12 8 20 1 8 29 87 62 175 32 88 60 167 62 175 2
8 5 17 8 20 3 3 20 50 39 105 19 55 38 104 42 110 5 5 9 16 9 25 0 8 6 27 14
42 8 15 17 40 21 57 12 54 23 43 40 -36 9 -43 20 -91 25 -108 5 -16 14 -55 19
-85 6 -30 14 -66 17 -80 3 -14 7 -36 10 -50 3 -14 7 -33 10 -42 3 -10 7 -28
10 -40 2 -13 6 -34 9 -48 4 -14 8 -36 11 -50 2 -14 7 -31 10 -39 2 -8 7 -30
10 -50 3 -20 9 -49 14 -66 8 -27 14 -51 26 -120 7 -41 10 -50 17 -62 5 -7 6
-13 3 -13 -2 0 2 -26 9 -58 8 -33 16 -70 19 -83 2 -13 10 -46 16 -74 7 -27 13
-59 15 -70 1 -11 3 -20 5 -20 1 0 3 -9 5 -20 1 -11 12 -64 25 -119 12 -54 23
-107 25 -118 2 -11 6 -27 9 -36 3 -9 8 -33 11 -52 3 -19 10 -48 15 -65 8 -29
27 -118 33 -160 1 -11 5 -24 9 -30 3 -5 9 -30 13 -55 8 -49 12 -68 21 -103 3
-12 7 -31 9 -42 2 -11 4 -22 5 -25 1 -3 3 -9 4 -15 1 -5 5 -23 9 -40 4 -16 9
-40 12 -53 2 -13 6 -31 9 -40 3 -9 7 -33 10 -52 3 -19 10 -50 15 -68 5 -18 10
-35 10 -37 1 -3 1 -6 2 -7 2 -7 10 -47 23 -123 3 -16 10 -46 15 -65 5 -19 15
-62 22 -95 6 -33 18 -81 25 -108 7 -26 10 -47 7 -47 -3 0 0 -6 6 -13 6 -8 8
-16 5 -20 -3 -3 1 -29 10 -59 8 -29 18 -69 21 -88 3 -19 12 -62 20 -95 8 -33
17 -71 19 -85 3 -14 13 -56 22 -95 9 -38 16 -82 17 -97 0 -16 4 -28 9 -28 4 0
8 -8 8 -18 0 -10 14 -79 30 -153 17 -73 32 -143 34 -154 3 -20 11 -56 22 -105
3 -14 7 -33 7 -42 1 -10 4 -18 7 -18 3 0 6 -12 7 -27 1 -16 12 -75 26 -133 14
-58 27 -118 30 -135 8 -46 45 -209 53 -228 5 -15 29 -17 202 -17 109 -1 206
-1 217 -1 48 0 325 0 490 0 99 0 241 0 316 1 l137 0 0 25 c0 14 -4 25 -8 25
-4 0 -7 8 -6 18 0 9 -5 37 -11 62 -16 58 -142 597 -148 632 -3 15 -10 39 -15
53 -5 14 -9 29 -9 33 1 4 1 9 -1 12 -1 3 -3 14 -5 25 -2 11 -14 58 -25 105
-12 47 -23 96 -26 110 -3 14 -9 41 -14 60 -5 19 -11 46 -14 60 -2 14 -21 93
-40 175 -20 83 -52 218 -72 300 -19 83 -49 207 -65 277 -17 70 -32 135 -34
145 -2 10 -4 19 -5 21 -3 2 -4 6 -13 52 -8 41 -10 47 -37 160 -11 47 -23 96
-26 110 -3 14 -9 41 -14 60 -5 19 -11 46 -14 60 -2 14 -14 63 -26 110 -11 47
-23 96 -26 110 -3 14 -21 93 -41 175 -19 83 -43 184 -53 225 -10 41 -32 136
-50 210 -17 74 -34 146 -37 160 -2 14 -11 49 -19 78 -9 30 -13 56 -10 59 3 4
1 12 -4 18 -6 7 -12 25 -14 41 -3 16 -10 47 -16 69 -6 22 -13 50 -15 63 -9 47
-15 70 -34 152 -12 47 -30 123 -40 170 -11 47 -36 153 -56 235 -20 83 -38 157
-40 165 -2 8 -11 48 -20 89 -9 40 -19 80 -20 90 -2 9 -4 16 -5 16 -2 0 -6 17
-14 60 -3 17 -10 44 -15 62 -5 17 -7 34 -3 37 3 3 0 6 -7 6 -7 0 -10 3 -7 8 2
4 -5 43 -15 87 -11 44 -22 91 -25 105 -2 14 -7 36 -11 50 -10 38 -11 43 -16
70 -3 14 -19 81 -36 150 -16 69 -39 164 -50 213 -12 48 -31 126 -42 175 -12
48 -23 96 -24 107 -2 11 -12 54 -24 96 -11 42 -22 91 -23 108 -1 17 -5 31 -9
31 -21 0 6 87 117 384 68 181 124 336 124 343 0 7 5 13 11 13 5 0 8 4 5 8 -3
5 1 19 8 33 11 23 14 30 21 54 4 14 116 314 214 575 45 119 81 221 81 228 0 6
4 12 10 12 5 0 9 3 9 8 -1 4 0 10 1 15 1 4 3 10 4 15 1 7 31 90 45 127 5 11
22 56 39 100 16 44 49 130 72 190 23 61 43 115 44 120 1 6 4 15 7 20 4 6 12
28 19 50 7 22 17 45 22 52 5 7 7 17 3 23 -3 5 -2 10 3 10 9 0 26 55 23 73 0 4
3 7 8 7 5 0 11 14 15 31 5 29 26 82 47 121 5 10 9 26 9 36 0 10 3 22 7 26 5 4
8 11 9 14 0 4 6 21 13 37 6 17 23 59 36 95 13 36 30 79 36 95 14 34 20 55 21
73 1 6 5 12 10 12 4 0 8 6 8 12 0 12 28 88 57 156 8 19 12 36 10 39 -4 3
-1068 7 -1299 3 -35 0 -41 -6 -53 -50 -1 -3 -4 -12 -7 -20 -3 -8 -18 -49 -33
-90 -15 -41 -37 -103 -50 -137 -13 -34 -20 -64 -17 -67 3 -3 1 -6 -5 -6 -5 0
-10 -7 -10 -15 0 -8 -7 -31 -16 -52 -23 -53 -40 -96 -43 -111 -1 -8 -6 -21
-10 -30 -4 -9 -8 -20 -9 -24 -2 -5 -4 -10 -5 -13 -1 -3 -3 -8 -4 -12 -1 -5 -6
-21 -13 -38 -6 -16 -20 -55 -31 -85 -11 -30 -23 -64 -28 -75 -4 -11 -8 -24
-10 -30 -1 -5 -8 -23 -15 -40 -6 -16 -13 -34 -15 -40 -3 -12 -72 -203 -81
-225 -3 -8 -7 -19 -9 -25 -1 -5 -14 -41 -29 -80 -15 -38 -28 -74 -30 -80 -1
-5 -5 -17 -8 -25 -4 -8 -24 -64 -46 -125 -64 -182 -182 -509 -191 -530 -13
-31 -52 -139 -54 -150 -1 -5 -5 -16 -9 -22 -5 -7 -5 -13 0 -13 4 0 2 -4 -4 -8
-7 -4 -14 -17 -16 -27 -2 -11 -9 -30 -15 -42 -7 -13 -11 -23 -9 -23 3 0 -15
-53 -40 -117 -24 -65 -46 -125 -48 -133 -2 -8 -13 -40 -25 -70 -12 -30 -23
-62 -25 -70 -2 -8 -15 -43 -29 -77 -13 -35 -22 -63 -19 -63 3 0 1 -6 -4 -12
-5 -7 -22 -49 -37 -93 -16 -44 -34 -94 -42 -112 -8 -17 -14 -35 -14 -40 0 -5
-12 -38 -26 -74 -14 -35 -27 -68 -28 -74 -2 -5 -6 -17 -9 -25 -10 -26 -55
-154 -68 -192 -7 -21 -16 -38 -20 -38 -3 0 -6 785 -6 1745 0 960 -2 1748 -6
1751 -7 7 -1272 11 -1291 4z"/>
</g>
</svg>
