<?xml version="1.0" standalone="no"?>
<!DOCTYPE svg PUBLIC "-//W3C//DTD SVG 20010904//EN"
 "http://www.w3.org/TR/2001/REC-SVG-20010904/DTD/svg10.dtd">
<svg version="1.0" xmlns="http://www.w3.org/2000/svg"
 width="700.000000pt" height="700.000000pt" viewBox="0 0 700.000000 700.000000"
 preserveAspectRatio="xMidYMid meet">
<metadata>
Created by potrace 1.11, written by Peter Selinger 2001-2013
</metadata>
<g transform="translate(0.000000,700.000000) scale(0.100000,-0.100000)"
fill="#000000" stroke="none">
<path d="M279 6563 c-1 -22 -1 -1491 0 -1515 1 -15 38 -17 499 -14 548 3 547
3 681 69 94 46 164 114 207 203 32 64 38 86 42 163 5 96 -8 170 -40 234 -28
57 -106 130 -166 158 -28 13 -52 26 -52 29 0 3 23 20 51 38 151 99 177 330 55
495 -35 47 -107 94 -192 124 l-79 28 -502 3 c-481 3 -503 3 -504 -15z m844
-373 c51 -25 68 -97 37 -154 -24 -47 -65 -57 -240 -59 l-160 -2 0 118 0 119
168 -4 c117 -3 175 -8 195 -18z m44 -525 c59 -35 78 -108 48 -183 -26 -65 -59
-75 -272 -80 l-181 -4 -4 83 c-2 46 -2 112 0 147 l3 64 187 -4 c164 -3 191 -5
219 -23z"/>
<path d="M2009 6578 c-3 -8 -4 -1507 -1 -1525 l4 -21 657 1 656 2 1 198 1 197
-419 0 -418 0 0 95 0 95 73 1 c39 0 205 0 368 0 l295 1 1 184 1 184 -369 0
-370 0 3 97 3 97 403 -1 402 0 0 198 0 199 -645 0 c-355 0 -645 -1 -646 -2z"/>
<path d="M3653 5806 l1 -774 660 2 659 1 0 195 0 195 -416 3 c-229 1 -418 6
-418 10 -1 4 -2 46 -3 95 l-2 87 41 0 c22 1 187 1 368 1 180 0 327 3 328 7 3
24 4 339 1 350 -3 9 -86 12 -368 12 -200 0 -365 3 -365 8 -1 4 -2 46 -3 95
l-1 87 30 1 c16 0 200 1 408 2 l377 0 0 199 0 198 -649 0 -649 0 1 -774z"/>
<path d="M5302 5808 l3 -773 238 -1 c233 0 237 0 238 20 0 12 1 132 1 269 l1
247 61 1 c106 2 230 -1 253 -5 86 -17 133 -86 149 -218 13 -109 35 -256 42
-283 l8 -30 238 -1 238 -2 -6 22 c-14 48 -26 124 -31 190 -11 153 -20 209 -41
274 -31 92 -80 160 -152 207 l-43 28 30 13 c16 7 50 31 74 54 137 126 166 383
62 550 -35 56 -111 120 -181 151 -122 56 -141 57 -684 59 l-500 1 2 -773z
m834 387 c73 -22 105 -59 109 -129 3 -69 -21 -111 -80 -141 -35 -17 -62 -19
-210 -20 l-170 0 -1 153 -1 152 152 0 c104 0 167 -5 201 -15z"/>
<path d="M279 4235 c-4 -136 -1 -1504 3 -1511 4 -5 208 -8 485 -8 533 2 555 4
688 69 124 62 193 138 235 259 30 89 24 240 -14 324 -34 73 -111 150 -184 183
l-47 21 25 16 c64 43 120 106 139 157 81 215 -41 437 -271 493 -92 23 -131 25
-591 26 l-467 1 -1 -30z m823 -354 c48 -16 70 -43 74 -90 3 -52 -29 -102 -76
-117 -19 -7 -104 -13 -187 -13 l-153 -2 0 114 c0 62 2 116 5 118 9 10 304 1
337 -10z m52 -525 c44 -18 68 -55 73 -114 5 -61 -20 -109 -70 -135 -34 -17
-61 -20 -215 -21 l-177 -1 -5 95 c-3 52 -4 118 -2 145 l4 50 178 -2 c129 -2
189 -6 214 -17z"/>
<path d="M2012 4260 c-9 -7 -9 -1533 0 -1540 3 -3 300 -5 660 -5 l653 1 0 199
0 199 -417 -1 -418 -1 0 97 0 97 361 -1 c198 0 364 2 369 5 4 3 7 86 6 185
l-1 179 -367 0 -368 0 0 96 0 97 400 0 c220 0 402 2 404 4 5 5 8 107 7 274
l-1 120 -641 0 c-352 0 -644 -2 -647 -5z"/>
<path d="M3674 4262 l-22 -3 1 -767 c0 -422 4 -769 8 -772 6 -4 1242 -5 1299
-1 13 1 15 29 14 191 0 105 -3 193 -7 196 -3 3 -191 6 -416 6 -226 0 -412 3
-412 6 -7 38 -2 182 6 185 5 2 171 3 368 3 231 -1 357 3 358 9 1 6 2 86 3 179
1 150 -1 169 -16 175 -9 3 -171 6 -360 5 -189 0 -348 3 -353 7 -6 5 -11 46
-10 96 l1 88 389 2 c215 1 398 2 408 2 16 1 17 17 17 196 0 107 -3 195 -7 196
-21 3 -1251 4 -1269 1z"/>
<path d="M5323 4262 l-23 -3 0 -770 c0 -725 1 -769 18 -770 83 -4 454 -1 459
4 3 4 7 125 7 269 l1 263 148 1 c162 0 202 -8 248 -52 41 -39 60 -104 74 -244
3 -36 11 -90 16 -120 6 -30 12 -68 14 -84 3 -16 7 -31 9 -34 8 -7 465 -7 472
1 3 3 1 21 -5 39 -15 49 -36 204 -33 258 2 43 -34 192 -59 241 -37 74 -71 114
-126 146 l-45 26 37 20 c177 90 249 374 146 575 -49 95 -161 176 -294 212 -79
22 -98 23 -562 24 -264 0 -490 0 -502 -2z m826 -386 c24 -9 51 -21 58 -28 37
-31 49 -116 25 -179 -13 -32 -63 -65 -113 -74 -31 -6 -228 -10 -310 -6 l-26 1
0 148 c0 81 4 149 8 153 5 3 78 4 161 3 111 -2 165 -7 197 -18z"/>
<path d="M279 1953 c-1 -21 -1 -1466 0 -1504 l1 -26 493 2 c433 1 500 4 557
19 160 43 284 138 341 261 56 118 52 284 -9 399 -31 58 -110 129 -169 153 -24
10 -43 21 -43 24 0 3 22 20 49 37 27 18 63 53 80 79 103 155 52 392 -106 490
-125 78 -160 82 -715 83 -450 0 -478 -1 -479 -17z m742 -354 c113 -4 161 -42
154 -120 -9 -88 -48 -108 -222 -109 -70 -1 -143 -1 -160 -1 l-33 1 0 114 0
115 48 3 c26 2 70 2 97 1 28 -1 80 -2 116 -4z m146 -544 c62 -37 81 -135 39
-200 -34 -51 -66 -59 -263 -63 l-182 -4 -3 109 c-2 59 -1 125 1 146 l3 39 187
-4 c163 -3 190 -5 218 -23z"/>
<path d="M2008 1963 c-3 -7 -2 -1458 1 -1519 l1 -20 658 0 657 1 0 195 0 195
-417 3 -418 2 0 98 0 97 368 0 367 0 1 183 1 182 -369 0 -368 0 0 98 0 97 402
0 403 0 3 198 2 197 -644 0 c-355 0 -646 -3 -648 -7z"/>
<path d="M3654 1198 l1 -773 658 -1 c459 0 657 3 658 10 1 14 1 357 0 373 -1
10 -95 13 -418 15 l-418 3 0 93 -1 92 35 1 c20 0 185 0 368 0 248 0 332 3 335
12 2 7 3 89 3 182 l-1 170 -369 5 -369 5 -1 88 c0 48 2 91 5 95 3 4 185 7 405
7 l400 0 3 198 2 197 -649 0 -649 0 2 -772z"/>
<path d="M5302 1198 l3 -773 233 0 c133 0 236 4 239 9 4 5 6 118 5 250 0 133
1 250 3 261 4 19 11 20 152 19 126 -1 156 -4 194 -21 68 -30 101 -88 114 -193
3 -25 8 -65 11 -90 3 -25 7 -61 9 -80 9 -71 29 -150 40 -151 5 -1 114 -2 242
-3 216 -1 231 0 222 16 -13 24 -27 100 -34 189 -13 155 -16 184 -27 228 -27
115 -103 227 -181 267 l-32 17 25 10 c42 18 110 77 137 121 83 131 95 329 26
454 -60 110 -177 195 -318 228 -16 4 -263 9 -548 11 l-517 4 2 -773z m777 397
c119 -11 174 -66 166 -165 -4 -53 -30 -89 -81 -114 -33 -16 -64 -19 -209 -20
l-170 -1 -2 152 -1 152 41 3 c57 4 178 1 256 -7z"/>
</g>
</svg>
