<?xml version="1.0" encoding="UTF-8"?>
<svg xmlns="http://www.w3.org/2000/svg" xmlns:xlink="http://www.w3.org/1999/xlink" width="119px" height="119px" viewBox="0 0 119 119">
  <!-- Generator: Sketch 48.2 (47327) - http://www.bohemiancoding.com/sketch -->
  <title>boiler-room</title>
  <desc>Created with Sketch.</desc>
  <defs></defs>
  <g id="1.1-Home" stroke="none" stroke-width="1" fill="none" fill-rule="evenodd" transform="translate(-647.000000, -2336.000000)">
    <g id="clients" transform="translate(293.000000, 2233.000000)" fill="#CCCCCC">
      <g id="logos" transform="translate(131.000000, 103.000000)">
        <g id="boiler-room" transform="translate(223.000000, 0.000000)">
          <path d="M8.04728261,45.16442 L18.5290217,45.16442 C23.1851957,45.16442 25.1407174,46.58102 25.1407174,49.20002 C25.1407174,51.30422 23.5666739,52.29062 21.5469783,52.78562 L21.5469783,52.82882 C23.7146304,52.95662 25.8002826,54.00962 25.8002826,56.67182 C25.8002826,57.87422 25.3528478,58.88222 24.6718913,59.46182 C23.6736304,60.32042 22.673587,60.66422 19.3579348,60.66422 L8.04728261,60.66422 L8.04728261,45.16442 Z M14.5092391,51.43382 L16.4237609,51.43382 C18.2937174,51.43382 18.8908913,50.76782 18.8908913,49.73822 C18.8908913,48.64202 18.4220652,48.04082 16.4023696,48.04082 L14.5092391,48.04082 L14.5092391,51.43382 Z M14.5092391,57.91562 L16.4237609,57.91562 C18.655587,57.91562 19.4648913,57.33602 19.4648913,56.04902 C19.4648913,54.76022 18.655587,54.18062 16.4237609,54.18062 L14.5092391,54.18062 L14.5092391,57.91562 Z" id="Fill-1"></path>
          <path d="M45.9530304,58.38848 C44.2952043,59.99948 41.6373348,61.07228 37.6835087,61.07228 C30.1787261,61.07228 27.4139,57.55148 27.4139,52.91468 C27.4139,49.90868 28.6046826,47.74148 30.3694652,46.47428 C31.8365522,45.42128 33.7296826,44.75708 37.6835087,44.75708 C45.1882913,44.75708 47.9513348,48.27788 47.9513348,52.91468 C47.9513348,55.29788 47.2293783,57.16448 45.9530304,58.38848 M37.6835087,48.27788 C35.5568565,48.27788 34.005987,49.73768 34.005987,52.91468 C34.005987,56.09168 35.5568565,57.55148 37.6835087,57.55148 C39.8101609,57.55148 41.3610304,56.09168 41.3610304,52.91468 C41.3610304,49.73768 39.8101609,48.27788 37.6835087,48.27788" id="Fill-3"></path>
          <polygon id="Fill-6" points="51 60 57 60 57 45 51 45"></polygon>
          <polygon id="Fill-7" points="60 45 66.2031065 45 66.2031065 56.3436302 73 56.3436302 73 60 60 60"></polygon>
          <polygon id="Fill-8" points="76 45 90.9150602 45 90.9150602 48.1581698 82.3361446 48.1581698 82.3361446 50.9209151 90.3746988 50.9209151 90.3746988 54.0790849 82.3361446 54.0790849 82.3361446 56.8418302 91 56.8418302 91 60 76 60"></polygon>
          <path d="M92.7520018,45.16442 L103.588966,45.16442 C107.741662,45.16442 110.313895,46.00142 110.313895,49.43582 C110.313895,51.47702 108.922591,52.76402 107.02568,53.10782 L107.02568,53.32202 C108.501841,53.36522 109.72343,53.90162 109.978002,55.46942 L110.800055,60.66422 L104.389805,60.66422 L103.862984,57.20822 C103.565984,55.29842 103.293734,55.03922 101.099823,55.03922 L99.1604839,55.03922 L99.1604839,60.66422 L92.7520018,60.66422 L92.7520018,45.16442 Z M99.1604839,52.03322 L101.60543,52.03322 C102.977287,52.03322 104.03093,51.60482 104.03093,50.14502 C104.03093,48.77162 103.060377,48.29822 101.501127,48.29822 L99.1604839,48.29822 L99.1604839,52.03322 Z" id="Fill-9"></path>
          <path d="M13.5670286,63.20132 L24.4039929,63.20132 C28.5584571,63.20132 31.1289214,64.03832 31.1289214,67.47272 C31.1289214,69.51392 29.7376179,70.80092 27.8407071,71.14472 L27.8407071,71.35892 C29.3168679,71.40212 30.540225,71.93852 30.7930286,73.50632 L31.6150821,78.70112 L25.2048321,78.70112 L24.6780107,75.24512 C24.3827786,73.33532 24.1087607,73.07612 21.9166179,73.07612 L19.9755107,73.07612 L19.9755107,78.70112 L13.5670286,78.70112 L13.5670286,63.20132 Z M19.9755107,70.07012 L22.422225,70.07012 C23.7923143,70.07012 24.847725,69.64172 24.847725,68.18192 C24.847725,66.80852 23.8771714,66.33512 22.3161536,66.33512 L19.9755107,66.33512 L19.9755107,70.07012 Z" id="Fill-11"></path>
          <path d="M51.6440196,76.42538 C49.9999125,78.03818 47.3640375,79.10918 43.4429304,79.10918 C36.0002518,79.10918 33.2583054,75.58838 33.2583054,70.95158 C33.2583054,67.94558 34.4392339,65.77838 36.1894125,64.51118 C37.6443589,63.45818 39.5218232,62.79398 43.4429304,62.79398 C50.8856089,62.79398 53.6257875,66.31478 53.6257875,70.95158 C53.6257875,73.33478 52.9098054,75.20138 51.6440196,76.42538 M43.4429304,66.31478 C41.3338768,66.31478 39.7958411,67.77458 39.7958411,70.95158 C39.7958411,74.12858 41.3338768,75.58838 43.4429304,75.58838 C45.5519839,75.58838 47.0900196,74.12858 47.0900196,70.95158 C47.0900196,67.77458 45.5519839,66.31478 43.4429304,66.31478" id="Fill-13"></path>
          <path d="M73.8415875,76.42538 C72.1974804,78.03818 69.5616054,79.10918 65.6404982,79.10918 C58.1978196,79.10918 55.4558732,75.58838 55.4558732,70.95158 C55.4558732,67.94558 56.6368018,65.77838 58.3869804,64.51118 C59.8419268,63.45818 61.7193911,62.79398 65.6404982,62.79398 C73.0831768,62.79398 75.8233554,66.31478 75.8233554,70.95158 C75.8233554,73.33478 75.1073732,75.20138 73.8415875,76.42538 M65.6404982,66.31478 C63.5314446,66.31478 61.9934089,67.77458 61.9934089,70.95158 C61.9934089,74.12858 63.5314446,75.58838 65.6404982,75.58838 C67.7495518,75.58838 69.2875875,74.12858 69.2875875,70.95158 C69.2875875,67.77458 67.7495518,66.31478 65.6404982,66.31478" id="Fill-15"></path>
          <polygon id="Fill-18" points="79 63 88.802139 63 92.0106952 73.0563233 92.0534759 73.0563233 95.1568627 63 105 63 105 78 99.0053476 78 99.0053476 66.7190802 98.9643494 66.7190802 94.7540107 78 88.5044563 78 84.5490196 66.7190802 84.4848485 66.7190802 84.4848485 78 79 78"></polygon>
          <path d="M59.499111,119 C26.6913894,119 0,92.3086106 0,59.500889 C0,26.6913894 26.6913894,0 59.499111,0 C92.3086106,0 119,26.6913894 119,59.500889 C119,92.3086106 92.3086106,119 59.499111,119 M59.499111,0.8498857 C27.1590043,0.8498857 0.848107696,27.1607823 0.848107696,59.500889 C0.848107696,91.8409957 27.1590043,118.151892 59.499111,118.151892 C91.8392177,118.151892 118.151892,91.8409957 118.151892,59.500889 C118.151892,27.1607823 91.8392177,0.8498857 59.499111,0.8498857" id="Fill-19"></path>
        </g>
      </g>
    </g>
  </g>
</svg>
