<?xml version="1.0" encoding="UTF-8"?>
<svg xmlns="http://www.w3.org/2000/svg" xmlns:xlink="http://www.w3.org/1999/xlink" width="166px" height="54px" viewBox="0 0 166 54">
  <!-- Generator: Sketch 48.2 (47327) - http://www.bohemiancoding.com/sketch -->
  <title>google</title>
  <desc>Created with Sketch.</desc>
  <defs></defs>
  <g id="1.1-Home" stroke="none" stroke-width="1" fill="none" fill-rule="evenodd" transform="translate(-194.000000, -2361.000000)">
    <g id="google" transform="translate(194.000000, 2361.000000)" fill="#CCCCCC" fill-rule="nonzero">
      <path d="M71,28.5 C71,36.2725428 64.9386517,42 57.5,42 C50.0613483,42 44,36.2725428 44,28.5 C44,20.6726781 50.0613483,15 57.5,15 C64.9386517,15 71,20.6726781 71,28.5 Z M65.0903371,28.5 C65.0903371,23.6429216 61.5773034,20.3196573 57.5,20.3196573 C53.4226966,20.3196573 49.9096629,23.6429216 49.9096629,28.5 C49.9096629,33.3083859 53.4226966,36.6803427 57.5,36.6803427 C61.5773034,36.6803427 65.0903371,33.3022994 65.0903371,28.5 Z" id="Shape"></path>
      <path d="M100,28.5 C100,36.2725428 93.9386517,42 86.5,42 C79.0613483,42 73,36.2725428 73,28.5 C73,20.6787647 79.0613483,15 86.5,15 C93.9386517,15 100,20.6726781 100,28.5 Z M94.0903371,28.5 C94.0903371,23.6429216 90.5773034,20.3196573 86.5,20.3196573 C82.4226966,20.3196573 78.9096629,23.6429216 78.9096629,28.5 C78.9096629,33.3083859 82.4226966,36.6803427 86.5,36.6803427 C90.5773034,36.6803427 94.0903371,33.3022994 94.0903371,28.5 Z" id="Shape"></path>
      <path d="M129,15.8136385 L129,39.9920598 C129,49.9378795 123.093133,54 116.110066,54 C109.536689,54 105.580433,49.634283 104.088429,46.0639888 L109.273754,43.9205979 C110.197084,46.1125642 112.459548,48.699206 116.103951,48.699206 C120.573848,48.699206 123.343838,45.960766 123.343838,40.8056983 L123.343838,38.8687529 L123.135936,38.8687529 C121.802916,40.5021018 119.234713,41.9290051 115.993885,41.9290051 C109.212606,41.9290051 103,36.0635217 103,28.516114 C103,20.9140589 109.212606,15 115.993885,15 C119.228598,15 121.796802,16.4269033 123.135936,18.0116768 L123.343838,18.0116768 L123.343838,15.8197104 L129,15.8197104 L129,15.8136385 Z M123.765757,28.516114 C123.765757,23.7739374 120.579962,20.306866 116.52587,20.306866 C112.416745,20.306866 108.97413,23.7739374 108.97413,28.516114 C108.97413,33.2097151 112.416745,36.6282111 116.52587,36.6282111 C120.579962,36.6282111 123.765757,33.2097151 123.765757,28.516114 Z" id="Shape"></path>
      <polygon id="Shape" points="138 2 138 42 132 42 132 2"></polygon>
      <path d="M161.123442,32.9492786 L165.743339,36.0169071 C164.252261,38.2141569 160.659008,42 154.450257,42 C146.750428,42 141,36.0716862 141,28.5 C141,20.4718215 146.799316,15 153.78416,15 C160.817893,15 164.258372,20.5752931 165.382791,23.5881425 L166,25.1219567 L147.880958,32.5962579 C149.26815,35.3047791 151.425324,36.6864292 154.450257,36.6864292 C157.4813,36.6864292 159.583476,35.2013075 161.123442,32.9492786 Z M146.903202,28.0922002 L159.015155,23.0829576 C158.349059,21.3969793 156.344659,20.2222723 153.985823,20.2222723 C150.96089,20.2222723 146.750428,22.882101 146.903202,28.0922002 Z" id="Shape"></path>
      <path d="M21.3400387,24.9634146 L21.3400387,19.2256098 L40.7128595,19.2256098 C40.90225,20.2256098 41,21.4085366 41,22.6890244 C41,26.9939024 39.8208911,32.3170732 36.0208613,36.1097561 C32.3246908,39.9512195 27.6021457,42 21.3461481,42 C9.75055878,42 0,32.5731707 0,21 C0,9.42682927 9.75055878,0 21.3461481,0 C27.7609894,0 32.3308002,2.51219512 35.7642676,5.78658537 L31.7076442,9.83536585 C29.245567,7.5304878 25.9098495,5.73780488 21.3400387,5.73780488 C12.8724482,5.73780488 6.24988824,12.5487805 6.24988824,21 C6.24988824,29.4512195 12.8724482,36.2621951 21.3400387,36.2621951 C26.8323648,36.2621951 29.9603636,34.0609756 31.9642378,32.0609756 C33.5893309,30.4390244 34.6584712,28.1219512 35.0800179,24.9573171 L21.3400387,24.9634146 Z" id="Shape"></path>
    </g>
  </g>
</svg>
