<?xml version="1.0" encoding="UTF-8"?>
<svg xmlns="http://www.w3.org/2000/svg" xmlns:xlink="http://www.w3.org/1999/xlink" width="171px" height="56px" viewBox="0 0 171 56">
  <!-- Generator: Sketch 48.2 (47327) - http://www.bohemiancoding.com/sketch -->
  <title>moo</title>
  <desc>Created with Sketch.</desc>
  <defs></defs>
  <g id="1.1-Home" stroke="none" stroke-width="1" fill="none" fill-rule="evenodd" transform="translate(-846.000000, -2354.000000)">
    <g id="clients" transform="translate(293.000000, 2233.000000)" fill="#CCCCCC">
      <g id="logos" transform="translate(131.000000, 103.000000)">
        <g id="moo" transform="translate(422.000000, 18.000000)">
          <path d="M18.6808,56 C12.789375,56 7.472225,53.4155599 3.8798,48.6771823 C1.293425,45.3746048 0,41.4972327 0,37.3336498 C0,36.0411924 0.143925,34.7492096 0.4313,33.6000949 C1.149975,29.4360374 4.167175,22.6870651 9.627775,13.3541273 C13.6515,6.46181229 16.95655,1.29245739 17.1,1.29245739 C17.387375,0.718137359 17.818675,0 18.6808,0 C19.542925,0 19.974225,0.718137359 20.40505,1.29245739 C20.40505,1.29245739 23.854025,6.46181229 27.877275,13.3541273 C33.337875,22.6870651 36.35555,29.4360374 37.074225,33.6000949 C37.3616,34.7492096 37.50505,36.0411924 37.50505,37.3336498 C37.50505,41.4972327 36.2121,45.3746048 33.62525,48.6771823 C29.889375,53.2722172 24.428775,56 18.6808,56 Z M18.6808,51.1182798 C23.13535,51.1182798 27.159075,49.107685 29.889375,45.6617648 C31.757075,43.2206674 32.763125,40.2052499 32.763125,37.0460151 C32.763125,36.0411924 32.619675,35.1797123 32.47575,34.1748896 C31.901,31.0151802 29.458075,25.5591399 25.2909,18.2358475 C22.129775,12.6359899 19.399475,8.61527508 19.399475,8.61527508 L18.6808,7.61045235 L18.10605,8.4719324 C18.10605,8.4719324 15.37575,12.6359899 12.214625,18.0925049 C7.903525,25.4153225 5.4606,30.8723121 5.029775,34.0310723 C4.88585,35.035895 4.7424,35.897375 4.7424,36.9026724 C4.7424,40.0619072 5.747975,42.9335074 7.61615,45.5179475 C10.202525,49.107685 14.22625,51.1182798 18.6808,51.1182798 Z M171,29.1488774 C171,19.0973276 162.8091,10.9130298 152.7505,10.9130298 C142.6919,10.9130298 134.501475,19.0973276 134.501475,29.1488774 C134.501475,39.1999525 142.6919,47.3847249 152.7505,47.3847249 C162.8091,47.3847249 171,39.1999525 171,29.1488774 Z M152.7505,42.7901647 C145.278275,42.7901647 139.099,36.7593297 139.099,29.1488774 C139.099,21.6822424 145.13435,15.5075901 152.7505,15.5075901 C160.222725,15.5075901 166.402,21.538425 166.402,29.1488774 C166.402,36.7593297 160.222725,42.7901647 152.7505,42.7901647 Z M130.1899,29.1488774 C130.1899,19.0973276 121.999,10.9130298 111.9404,10.9130298 C101.8818,10.9130298 93.691375,19.0973276 93.691375,29.1488774 C93.691375,39.1999525 101.8818,47.3847249 111.9404,47.3847249 C121.999,47.3847249 130.1899,39.1999525 130.1899,29.1488774 Z M111.9404,42.7901647 C104.468175,42.7901647 98.289375,36.7593297 98.289375,29.1488774 C98.289375,21.6822424 104.32425,15.5075901 111.9404,15.5075901 C119.412625,15.5075901 125.5919,21.538425 125.5919,29.1488774 C125.5919,36.7593297 119.412625,42.7901647 111.9404,42.7901647 Z M71.1303,38.4822898 L84.3505,12.9231499 C84.7818,11.9178526 85.5,11.3435325 86.6495,11.3435325 C87.942925,11.3435325 88.948975,12.2050126 88.948975,13.6412873 L88.948975,44.5131248 C88.948975,45.8051075 88.08685,46.9537476 86.6495,46.9537476 C85.069175,46.9537476 84.20705,45.8051075 84.20705,44.5131248 L84.20705,22.9742251 L73.71715,43.0768501 C72.855025,44.3693074 71.848975,44.6569421 71.1303,44.6569421 C70.55555,44.6569421 69.40605,44.5131248 68.543925,43.0768501 L58.054025,22.9742251 L58.054025,44.5131248 C58.054025,45.8051075 57.1919,46.9537476 55.6111,46.9537476 C54.174225,46.9537476 53.3121,45.8051075 53.3121,44.5131248 L53.3121,13.78463 C53.3121,12.2050126 54.317675,11.4873499 55.6111,11.4873499 C56.7606,11.4873499 57.33535,12.0616699 57.9101,13.0664926 L71.1303,38.4822898 Z" id="Fill-1"></path>
        </g>
      </g>
    </g>
  </g>
</svg>
