<?xml version="1.0" encoding="UTF-8"?>
<svg xmlns="http://www.w3.org/2000/svg" xmlns:xlink="http://www.w3.org/1999/xlink" width="155px" height="81px" viewBox="0 0 155 81">
  <!-- Generator: Sketch 48.2 (47327) - http://www.bohemiancoding.com/sketch -->
  <title>nike</title>
  <desc>Created with Sketch.</desc>
  <defs></defs>
  <g id="1.1-Home" stroke="none" stroke-width="1" fill="none" fill-rule="evenodd" transform="translate(-424.000000, -2356.000000)">
    <g id="clients" transform="translate(293.000000, 2233.000000)" fill="#CCCCCC">
      <g id="logos" transform="translate(131.000000, 103.000000)">
        <g id="nike" transform="translate(0.000000, 20.000000)">
          <path d="M25.9998916,53.4277356 C25.2008892,53.4277356 24.6074934,52.8219409 24.6074934,52.0023629 C24.6074934,51.1830098 25.1963347,50.5720394 25.9998916,50.5720394 C26.7943393,50.5720394 27.3925066,51.1926864 27.3925066,52.0023629 C27.3925066,52.8073136 26.7897847,53.4277356 25.9998916,53.4277356 Z M25.9998916,50 C24.8785989,50 24,50.8146273 24,52.0023629 C24,53.1903235 24.8831535,54 25.9998916,54 C27.1168465,54 28,53.1853727 28,52.0023629 C28,50.8146273 27.1214011,50 25.9998916,50 Z" id="Fill-1"></path>
          <polyline id="Fill-2" points="46.2849901 43 35.6185347 43 36.8311287 23.9756157 29.9046337 43 20 43 35.7152475 0 46.2545743 0 45.037703 19.2848086 52.095604 0 62 0 46.2849901 43"></polyline>
          <polyline id="Fill-3" points="49 42 64.9485605 0 75 0 59.0514395 42 49 42"></polyline>
          <path d="M19.8557523,27.4829423 C5.97357751,43.8480901 -7.12114548,65.6233069 4.44538713,75.6512666 C15.6529904,85.3681927 29.662435,79.6147905 39.2143398,75.7792688 C48.7662447,71.9435079 154.346515,25.916769 154.346515,25.916769 C155.365627,25.4054777 155.174484,24.7661842 153.900833,25.085831 C153.386749,25.2147903 38.959562,56.3456558 38.959562,56.3456558 C24.4405618,60.4369428 7.88405381,51.5191335 19.8557523,27.4829423" id="Fill-5"></path>
          <path d="M25.9724324,51.8063977 L25.6187973,51.8063977 L25.6187973,51.3422538 L25.9172971,51.3422538 C26.0996282,51.3422538 26.3093986,51.3604432 26.3093986,51.5540456 C26.3093986,51.7612377 26.1878446,51.8063977 25.9724324,51.8063977 Z M26.3701757,52.1306711 C26.7017566,52.1170813 26.9615335,51.9776291 26.9615335,51.6035961 C26.9615335,51.121681 26.5748173,51 25.9283241,51 L25,51 L25,53 L25.6187973,53 L25.6187973,52.1486515 L25.7236825,52.1486515 L26.2873445,53 L27,53 L26.3701757,52.1306711 Z" id="Fill-7"></path>
          <path d="M125.999892,3.42773558 C125.200889,3.42773558 124.607493,2.82194093 124.607493,2.00236287 C124.607493,1.18300985 125.196118,0.572039381 125.999892,0.572039381 C126.794339,0.572039381 127.392507,1.19268636 127.392507,2.00236287 C127.392507,2.80731364 126.789785,3.42773558 125.999892,3.42773558 Z M125.999892,0 C124.878599,0 124,0.814627286 124,2.00236287 C124,3.19032349 124.883153,4 125.999892,4 C127.116847,4 128,3.18537271 128,2.00236287 C128,0.814627286 127.121401,0 125.999892,0 Z" id="Fill-8"></path>
          <path d="M125.972432,1.80639766 L125.618797,1.80639766 L125.618797,1.34225382 L125.917297,1.34225382 C126.099628,1.34225382 126.309399,1.36044324 126.309399,1.55404558 C126.309399,1.76123772 126.187845,1.80639766 125.972432,1.80639766 Z M126.370176,2.13067113 C126.701757,2.11708133 126.961277,1.9776291 126.961277,1.60359607 C126.961277,1.12168095 126.574817,1 125.928324,1 L125,1 L125,3 L125.618797,3 L125.618797,2.14865147 L125.723939,2.14865147 L126.287345,3 L127,3 L126.370176,2.13067113 Z" id="Fill-9"></path>
          <path d="M86.6357506,40 L86,17.7499752 L101,1 L86.6357506,40 Z M118.357142,7.16654475 L121,0 L90.9894007,0 L80.6836694,12.9000244 L85.4410502,0 L75.4795983,0 L60,43 L69.8354442,43 L76.4440056,25.0180444 L76.896831,43 L107.075677,42.9324555 L109.948605,34.6605706 L98.4738809,34.6605706 L102.243729,24.2362838 L111.700914,24.2362838 L114.610418,16.2226286 L105.153233,16.2226286 L108.395454,7.16654475 L118.357142,7.16654475 Z" id="Fill-10"></path>
        </g>
      </g>
    </g>
  </g>
</svg>
