<?xml version="1.0" encoding="UTF-8"?>
<!-- Generator: Adobe Illustrator 22.0.0, SVG Export Plug-In . SVG Version: 6.00 Build 0)  -->
<svg xmlns="http://www.w3.org/2000/svg" xmlns:xlink="http://www.w3.org/1999/xlink" id="Layer_1" x="0px" y="0px" viewBox="0 0 720 720" style="enable-background:new 0 0 720 720;" xml:space="preserve">
<style type="text/css">
	.st0{fill:#EBECE7;}
	.st1{fill:#CCCCCC;}
</style>
<rect y="0" class="st0" width="720" height="720"></rect>
<title>user</title>
<g>
	<path class="st1" d="M333.9,171.2c0-5.5-4.5-9.9-9.9-9.9c-5.5,0-9.9,4.5-9.9,9.9c0,25.9,5,47.6,9,65c3.9,17,7,30.4,2.6,36   c-3.7,4.7-14.2,7.4-31.4,8.1c0-3.2-0.1-6.5-0.1-9.7v-79.5c0-5.5-4.5-9.9-9.9-9.9c-5.5,0-9.9,4.5-9.9,9.9v79.5c0,3.3,0,6.5-0.1,9.7   c-17.1-0.7-27.6-3.5-31.3-8.1c-4.5-5.6-1.4-19,2.6-36.1c4-17.4,9-39,9-64.9c0-5.5-4.5-9.9-9.9-9.9s-9.9,4.5-9.9,9.9   c0,23.6-4.7,44.1-8.5,60.5c-5.1,22.2-9.2,39.8,1.3,52.9c7.8,9.7,21.9,14.6,46.4,15.6c-2.2,55.4-10.3,103.1-16.9,142.6   c-8.9,52.5-14.7,87.2,0.2,104.9c6.2,7.3,15.4,11,27.2,11c11.9,0,21-3.7,27.2-11c15-17.7,9.1-52.4,0.2-105   c-6.6-39.4-14.7-87.1-16.9-142.5c24.5-1,38.7-5.8,46.4-15.6c10.4-13.1,6.4-30.6,1.2-52.8C338.7,215.3,334,194.9,333.9,171.2   L333.9,171.2z M296.3,534.9c-1.4,1.7-4.3,4-12.1,4s-10.6-2.3-12-4c-9-10.6-2.9-46.8,4.2-88.8c2.6-15.2,5.3-31.5,7.9-49   c2.6,17.5,5.3,33.8,7.8,48.9C299.2,488,305.3,524.2,296.3,534.9z"></path>
	<path class="st1" d="M490.6,442.7c-7.8-46.3-17.5-103.9-17.5-172.1v-99.4c0-4.5-3-8.4-7.4-9.6c-4.4-1.2-8.9,0.8-11.2,4.7   c-40.1,70.2-59.9,177.5-60.8,182c-0.5,2.9,0.3,5.9,2.2,8.1c1.9,2.3,4.7,3.6,7.6,3.6h44.4c-3.5,30.7-8.1,58.3-12.3,82.8   c-8.9,52.5-14.7,87.2,0.2,104.9c6.2,7.3,15.4,11,27.2,11s21-3.7,27.2-11C505.3,530,499.4,495.3,490.6,442.7L490.6,442.7z    M415.6,340.1c4.9-23.3,17.5-77.2,37.5-125.5v56c0,24.6-1.3,47.8-3.2,69.6C449.9,340.1,415.6,340.1,415.6,340.1z M475.2,534.9   c-1.4,1.7-4.3,4-12.1,4c-7.8,0-10.6-2.3-12-4c-9-10.6-2.9-46.8,4.2-88.8c2.6-15.2,5.3-31.5,7.9-49c2.6,17.5,5.3,33.8,7.8,48.9   C478,488,484.2,524.2,475.2,534.9z"></path>
</g>
</svg>
