<?xml version="1.0" encoding="UTF-8"?>
<!-- Generator: Adobe Illustrator 22.0.0, SVG Export Plug-In . SVG Version: 6.00 Build 0)  -->
<svg xmlns="http://www.w3.org/2000/svg" xmlns:xlink="http://www.w3.org/1999/xlink" id="Layer_1" x="0px" y="0px" viewBox="0 0 720 720" style="enable-background:new 0 0 720 720;" xml:space="preserve">
<style type="text/css">
	.st0{fill:#EBECE7;}
	.st1{fill:#CCCCCC;}
</style>
<rect class="st0" width="720" height="720"></rect>
<title>user</title>
<path class="st1" d="M361.4,382.1c-63.9,0-115.9-52-115.9-115.9s52-115.9,115.9-115.9s115.9,52,115.9,115.9S425.3,382.1,361.4,382.1  z M361.4,171.3c-52.3,0-94.8,42.5-94.8,94.8s42.5,94.8,94.8,94.8s94.8-42.5,94.8-94.8S413.7,171.3,361.4,171.3z"></path>
<path class="st1" d="M530,571.7H192.8c-17.4,0-31.6-14.2-31.6-31.6c0-1.4,0.3-35.5,25.8-69.5c14.9-19.8,35.2-35.5,60.5-46.8  c30.9-13.7,69.2-20.7,113.9-20.7s83.1,7,113.9,20.7c25.3,11.2,45.6,27,60.5,46.8c25.5,34,25.8,68.1,25.8,69.5  C561.6,557.6,547.4,571.7,530,571.7z M361.4,424.2c-73.5,0-127.7,20.1-156.8,58.1c-21.8,28.5-22.3,57.6-22.3,57.9  c0,5.8,4.7,10.5,10.5,10.5H530c5.8,0,10.5-4.7,10.5-10.5c0-0.2-0.5-29.4-22.3-57.8C489.1,444.3,434.9,424.2,361.4,424.2L361.4,424.2  z"></path>
</svg>
