<?xml version="1.0" encoding="UTF-8"?>
<svg width="26px" height="60px" viewBox="0 0 26 60" version="1.1" xmlns="http://www.w3.org/2000/svg" xmlns:xlink="http://www.w3.org/1999/xlink">
    <!-- Generator: Sketch 58 (84663) - https://sketch.com -->
    <title>Can (1)</title>
    <desc>Created with Sketch.</desc>
    <g id="Page-1" stroke="none" stroke-width="1" fill="none" fill-rule="evenodd">
        <g id="Can-(1)" fill-rule="nonzero">
            <ellipse id="Oval" fill="#C4C4C4" cx="12.4232727" cy="4.38218182" rx="9.42145455" ry="2.52436364"></ellipse>
            <path d="M0,10.1541818 L0,53.04 C0,53.8767273 0.557818182,54.704 1.61672727,55.4461818 C2.86472727,57.7625455 7.72436364,59.5636364 12.8014545,59.5636364 C17.8785455,59.5636364 22.7287273,57.7625455 23.9861818,55.4461818 C25.0403636,54.704 25.5981818,53.8767273 25.5981818,53.0447273 L25.5981818,10.1541818 C25.5478025,9.18498348 25.2049895,8.25378463 24.6149091,7.48327273 C24.1179348,6.75141531 23.5630651,6.0605946 22.9556364,5.41745455 C23.000603,5.10419572 23.0258648,4.78842352 23.0312727,4.472 L23.0312727,3.65890909 C23.0312727,1.29527273 17.7603636,0 12.8014545,0 C7.84254545,0 2.56690909,1.28109091 2.56690909,3.65890909 L2.56690909,4.49563636 C2.57360192,4.80276242 2.60044751,5.10911797 2.64727273,5.41272727 C2.02242951,6.04811845 1.46335058,6.74498736 0.978545455,7.49272727 C0.42326436,8.27800714 0.0856570523,9.19623378 0,10.1541818 Z M12.8014545,6.43854545 C9.16618182,6.43854545 6.01309091,5.79090909 4.46727273,4.84545455 C4.524,3.54545455 8.46654545,2.36363636 12.8014545,2.36363636 C17.1363636,2.36363636 21.0789091,3.54545455 21.1309091,4.85018182 C19.5850909,5.79090909 16.432,6.43854545 12.8014545,6.43854545 L12.8014545,6.43854545 Z" id="Shape" fill="#272A67"></path>
            <path d="M7.56363636,5.27090909 C8.21614806,5.59678651 8.92580438,5.7926645 9.65309091,5.84763636 C11.2178182,5.94218182 12.2105455,5.17163636 13.156,4.86436364 C13.6287273,4.70363636 14.2338182,4.57127273 14.7821818,4.43890909 C15.1328552,4.38465751 15.4717477,4.2711605 15.7843636,4.10327273 C16.0727273,3.83854545 15.5716364,3.46509091 15.1272727,3.26181818 C14.4445925,2.97124777 13.7087871,2.8263408 12.9669091,2.83636364 C12.5612011,2.8688679 12.1610719,2.95143424 11.7756364,3.08218182 C11.2556364,3.23345455 10.7309091,3.39418182 10.1589091,3.51709091 C9.06690909,3.75345455 6.67490909,3.88109091 6.50945455,4.43418182 C6.43381818,4.67527273 6.83090909,4.94472727 7.56363636,5.27090909 Z M12.2578182,3.61636364 C12.6781428,3.51386887 13.1195831,3.54022351 13.5247273,3.692 C13.8414545,3.83381818 13.78,4.03236364 13.3923636,4.13636364 C12.9704384,4.2386581 12.5275517,4.2123154 12.1207273,4.06072727 C11.7850909,3.91890909 11.8465455,3.71563636 12.2341818,3.61636364 L12.2578182,3.61636364 Z M8.424,4.22618182 C9.25233489,4.02882081 10.1204516,4.07978978 10.92,4.37272727 C11.5392727,4.65636364 11.4210909,5.05345455 10.66,5.252 C9.83026724,5.45145003 8.96003023,5.40045316 8.15927273,5.10545455 C7.56363636,4.82181818 7.66290909,4.42945455 8.424,4.22618182 Z" id="Shape" fill="#272A67"></path>
            <path d="M3.71563636,7.34145455 C3.71563636,7.34145455 12.6974545,11.3218182 21.4334545,7.34145455 C21.4334545,7.34145455 23.4661818,8.97709091 23.5418182,12.3381818 C23.6174545,15.6992727 23.5418182,53.4654545 23.5418182,53.4654545 C23.5418182,53.4654545 12.8014545,61.5018182 2.23127273,53.4654545 L2.23127273,12.3381818 C2.23127273,12.3381818 1.80581818,10.5465455 3.71563636,7.34145455 Z" id="Path" fill="#FEB935"></path>
            <path d="M13.7327273,9.09527273 C11.2927173,9.15084691 8.85726107,8.85795544 6.5,8.22545455 L6.5,55.8290909 C8.79237584,56.7558277 11.2664675,57.1455375 13.7327273,56.9683636 L13.7327273,9.09527273 Z" id="Path" fill="#F4961C"></path>
        </g>
    </g>
</svg>