<?xml version="1.0" encoding="UTF-8"?>
<svg width="26px" height="60px" viewBox="0 0 26 60" version="1.1" xmlns="http://www.w3.org/2000/svg" xmlns:xlink="http://www.w3.org/1999/xlink">
    <!-- Generator: Sketch 59.1 (86144) - https://sketch.com -->
    <title>can-large</title>
    <desc>Created with Sketch.</desc>
    <g id="Page-1" stroke="none" stroke-width="1" fill="none" fill-rule="evenodd">
        <g id="can-large">
            <ellipse id="Oval" fill="#C4C4C4" fill-rule="nonzero" cx="12.4232727" cy="4.38218182" rx="9.42145455" ry="2.52436364"></ellipse>
            <path d="M0,10.1541818 L0,53.04 C0,53.8767273 0.557818182,54.704 1.61672727,55.4461818 C2.86472727,57.7625455 7.72436364,59.5636364 12.8014545,59.5636364 C17.8785455,59.5636364 22.7287273,57.7625455 23.9861818,55.4461818 C25.0403636,54.704 25.5981818,53.8767273 25.5981818,53.0447273 L25.5981818,10.1541818 C25.5478025,9.18498348 25.2049895,8.25378463 24.6149091,7.48327273 C24.1179348,6.75141531 23.5630651,6.0605946 22.9556364,5.41745455 C23.000603,5.10419572 23.0258648,4.78842352 23.0312727,4.472 L23.0312727,3.65890909 C23.0312727,1.29527273 17.7603636,0 12.8014545,0 C7.84254545,0 2.56690909,1.28109091 2.56690909,3.65890909 L2.56690909,4.49563636 C2.57360192,4.80276242 2.60044751,5.10911797 2.64727273,5.41272727 C2.02242951,6.04811845 1.46335058,6.74498736 0.978545455,7.49272727 C0.42326436,8.27800714 0.0856570523,9.19623378 0,10.1541818 Z M12.8014545,6.43854545 C9.16618182,6.43854545 6.01309091,5.79090909 4.46727273,4.84545455 C4.524,3.54545455 8.46654545,2.36363636 12.8014545,2.36363636 C17.1363636,2.36363636 21.0789091,3.54545455 21.1309091,4.85018182 C19.5850909,5.79090909 16.432,6.43854545 12.8014545,6.43854545 L12.8014545,6.43854545 Z" id="Shape" fill="#272A67" fill-rule="nonzero"></path>
            <path d="M7.56363636,5.27090909 C8.21614806,5.59678651 8.92580438,5.7926645 9.65309091,5.84763636 C11.2178182,5.94218182 12.2105455,5.17163636 13.156,4.86436364 C13.6287273,4.70363636 14.2338182,4.57127273 14.7821818,4.43890909 C15.1328552,4.38465751 15.4717477,4.2711605 15.7843636,4.10327273 C16.0727273,3.83854545 15.5716364,3.46509091 15.1272727,3.26181818 C14.4445925,2.97124777 13.7087871,2.8263408 12.9669091,2.83636364 C12.5612011,2.8688679 12.1610719,2.95143424 11.7756364,3.08218182 C11.2556364,3.23345455 10.7309091,3.39418182 10.1589091,3.51709091 C9.06690909,3.75345455 6.67490909,3.88109091 6.50945455,4.43418182 C6.43381818,4.67527273 6.83090909,4.94472727 7.56363636,5.27090909 Z M12.2578182,3.61636364 C12.6781428,3.51386887 13.1195831,3.54022351 13.5247273,3.692 C13.8414545,3.83381818 13.78,4.03236364 13.3923636,4.13636364 C12.9704384,4.2386581 12.5275517,4.2123154 12.1207273,4.06072727 C11.7850909,3.91890909 11.8465455,3.71563636 12.2341818,3.61636364 L12.2578182,3.61636364 Z M8.424,4.22618182 C9.25233489,4.02882081 10.1204516,4.07978978 10.92,4.37272727 C11.5392727,4.65636364 11.4210909,5.05345455 10.66,5.252 C9.83026724,5.45145003 8.96003023,5.40045316 8.15927273,5.10545455 C7.56363636,4.82181818 7.66290909,4.42945455 8.424,4.22618182 Z" id="Shape" fill="#272A67" fill-rule="nonzero"></path>
            <path d="M3.71563636,7.34145455 C3.71563636,7.34145455 12.6974545,11.3218182 21.4334545,7.34145455 C21.4334545,7.34145455 23.4661818,8.97709091 23.5418182,12.3381818 C23.6174545,15.6992727 23.5418182,53.4654545 23.5418182,53.4654545 C23.5418182,53.4654545 12.8014545,61.5018182 2.23127273,53.4654545 L2.23127273,12.3381818 C2.23127273,12.3381818 1.80581818,10.5465455 3.71563636,7.34145455 Z" id="Path" fill="#FEB935" fill-rule="nonzero"></path>
            <path d="M13.7327273,9.09527273 C11.2927173,9.15084691 8.85726107,8.85795544 6.5,8.22545455 L6.5,55.8290909 C8.79237584,56.7558277 11.2664675,57.1455375 13.7327273,56.9683636 L13.7327273,9.09527273 Z" id="Path" fill="#F4961C" fill-rule="nonzero"></path>
            <path d="M9.56173509,31.0785578 C10.0550649,31.0785578 10.1600499,31.3637902 10.1600499,31.5602348 C10.1600499,31.7402238 10.0807405,31.8436388 9.95792518,31.9199933 C9.94679905,31.9269412 9.94808283,31.9439089 9.96013614,31.9488822 C10.1159733,32.0137543 10.2545507,32.1509583 10.2545507,32.416005 C10.2545507,32.8007762 9.92911135,33 9.59846558,33 L8.55146818,33 C8.54269565,33 8.53563484,32.9926863 8.53563484,32.9836906 L8.53563484,31.0947941 C8.53563484,31.0857983 8.54269565,31.0785578 8.55146818,31.0785578 L9.56173509,31.0785578 Z M16.2510214,31.0785066 C16.5790996,31.0785066 16.8625307,31.2642002 16.8625307,31.6275423 C16.8625307,31.8149181 16.7835066,32.0117284 16.6145464,32.0949577 C16.6027783,32.1007355 16.6024217,32.1179226 16.6140471,32.1239929 C16.7524818,32.1963981 16.8377109,32.3655628 16.8572529,32.5881903 C16.8645277,32.6752227 16.8673092,32.8770795 16.9091035,32.9773496 C16.9135254,32.9881007 16.9058941,32.9999488 16.8944826,32.9999488 L16.3547227,32.9999488 C16.3476619,32.9999488 16.3414569,32.9951218 16.3394599,32.9881738 C16.3131423,32.8949979 16.3032287,32.7994817 16.2956686,32.7039654 C16.2799066,32.5209047 16.2641446,32.3298722 16.0358449,32.3298722 L15.7446399,32.3298722 C15.7359387,32.3298722 15.7288065,32.3371127 15.7288065,32.3461085 L15.7288065,32.9837125 C15.7288065,32.9927083 15.7216744,32.9999488 15.7129732,32.9999488 L15.1672935,32.9999488 C15.158521,32.9999488 15.1514602,32.9927083 15.1514602,32.9837125 L15.1514602,31.0947429 C15.1514602,31.0857471 15.158521,31.0785066 15.1672935,31.0785066 L16.2510214,31.0785066 Z M12.3407786,31.0785213 C12.3494798,31.0785213 12.3566119,31.0857618 12.3566119,31.0947576 L12.3566119,31.554713 C12.3566119,31.5637088 12.3494798,31.5709493 12.3407786,31.5709493 L11.3988375,31.5709493 C11.390065,31.5709493 11.3830042,31.578263 11.3830042,31.5872588 L11.3830042,31.7942351 C11.3830042,31.8032309 11.390065,31.8104714 11.3988375,31.8104714 L12.2515556,31.8104714 C12.2602568,31.8104714 12.2673889,31.817785 12.2673889,31.8267077 L12.2673889,32.251777 C12.2673889,32.2606997 12.2602568,32.2680133 12.2515556,32.2680133 L11.3988375,32.2680133 C11.390065,32.2680133 11.3830042,32.2752538 11.3830042,32.2842496 L11.3830042,32.4912259 C11.3830042,32.5002217 11.390065,32.5075354 11.3988375,32.5075354 L12.3696637,32.5075354 C12.3783649,32.5075354 12.3854971,32.5147759 12.3854971,32.5236985 L12.3854971,32.9837271 C12.3854971,32.9926498 12.3783649,32.9999634 12.3696637,32.9999634 L10.8214912,32.9999634 C10.8127187,32.9999634 10.8056579,32.9926498 10.8056579,32.9837271 L10.8056579,31.0947576 C10.8056579,31.0857618 10.8127187,31.0785213 10.8214912,31.0785213 L12.3407786,31.0785213 Z M14.5136762,31.0785213 C14.5223774,31.0785213 14.5295095,31.0857618 14.5295095,31.0947576 L14.5295095,31.554713 C14.5295095,31.5637088 14.5223774,31.5709493 14.5136762,31.5709493 L13.5717351,31.5709493 C13.5629626,31.5709493 13.5559018,31.578263 13.5559018,31.5872588 L13.5559018,31.7942351 C13.5559018,31.8032309 13.5629626,31.8104714 13.5717351,31.8104714 L14.4244532,31.8104714 C14.4331544,31.8104714 14.4402865,31.817785 14.4402865,31.8267077 L14.4402865,32.251777 C14.4402865,32.2606997 14.4331544,32.2680133 14.4244532,32.2680133 L13.5717351,32.2680133 C13.5629626,32.2680133 13.5559018,32.2752538 13.5559018,32.2842496 L13.5559018,32.4912259 C13.5559018,32.5002217 13.5629626,32.5075354 13.5717351,32.5075354 L14.5425613,32.5075354 C14.5512625,32.5075354 14.5583947,32.5147759 14.5583947,32.5236985 L14.5583947,32.9837271 C14.5583947,32.9926498 14.5512625,32.9999634 14.5425613,32.9999634 L12.9943888,32.9999634 C12.9856163,32.9999634 12.9785555,32.9926498 12.9785555,32.9837271 L12.9785555,31.0947576 C12.9785555,31.0857618 12.9856163,31.0785213 12.9943888,31.0785213 L14.5136762,31.0785213 Z M5.19937905,31.1179565 C5.74035148,31.2635712 6.03319694,31.7367644 5.89176671,32.2890181 C5.75040779,32.8412718 5.26884605,33.106026 4.7278023,32.9604843 C4.18675855,32.8148696 3.89405573,32.3416764 4.03534332,31.7894227 C4.17670223,31.2372421 4.6583353,30.9724148 5.19937905,31.1179565 Z M21.0711607,31.2584517 C21.0809317,31.2561113 21.0907027,31.2623279 21.0929137,31.2723476 L21.4454551,32.8251818 C21.4477374,32.8351284 21.4416751,32.8451481 21.4319041,32.8474885 L21.0098243,32.9482706 C21.0001246,32.9506109 20.9903536,32.9443943 20.9880713,32.9343746 L20.8800195,32.4579634 C20.8777372,32.4479437 20.8679662,32.4417271 20.8581951,32.4440675 L19.5663515,32.7524841 C19.5565805,32.7548976 19.5468095,32.7486079 19.5445985,32.7386613 L19.4247787,32.2110546 C19.4225677,32.2010349 19.42863,32.1910152 19.4383297,32.1886748 L20.7301733,31.8802582 C20.7399443,31.8779178 20.7460067,31.8679713 20.7437244,31.8579516 L20.6355299,31.3816135 C20.6333189,31.3715938 20.6393812,31.3615741 20.6490809,31.3592338 L21.0711607,31.2584517 Z M21.8671996,32.685886 L21.890807,32.7981506 L21.8956034,32.825979 L21.8956034,32.825979 L21.899,32.851 L21.9027355,32.8230444 C21.9038053,32.8140395 21.905,32.8060493 21.906569,32.7981506 L21.9301764,32.685886 L22,32.685886 L22,32.9278947 L21.9559234,32.9278947 L21.9559234,32.8517596 L21.9567703,32.7796196 L21.9567703,32.7796196 L21.9591329,32.7075344 L21.9119181,32.9278947 L21.8851726,32.9278947 L21.8388851,32.7075344 L21.837316,32.7075344 C21.8401689,32.7555851 21.841096,32.8036358 21.841096,32.8517596 L21.841096,32.9278947 L21.7970194,32.9278947 L21.7970194,32.685886 L21.8671996,32.685886 Z M21.770816,32.6859153 L21.770816,32.7213865 L21.7195359,32.7213865 L21.7195359,32.927924 L21.6755307,32.927924 L21.6755307,32.7213865 L21.623894,32.7213865 L21.623894,32.6859153 L21.770816,32.6859153 Z M9.47515097,32.184528 L9.1288145,32.184528 C9.12004197,32.184528 9.11298116,32.1918417 9.11298116,32.2007643 L9.11298116,32.5262217 C9.11298116,32.5352175 9.12004197,32.542458 9.1288145,32.542458 L9.4515436,32.542458 C9.57221932,32.542458 9.67720435,32.5074988 9.67720435,32.3594705 C9.67720435,32.2464015 9.61158871,32.184528 9.47515097,32.184528 Z M4.47717908,31.9083426 C4.44066255,32.0508125 4.47653718,32.2944302 4.87108689,32.4005513 C5.26570791,32.5068186 5.41355706,32.3126412 5.45000227,32.1701713 C5.4865188,32.0277014 5.45071549,31.7840837 5.05609446,31.6778895 C4.66147344,31.5716222 4.51362429,31.7658727 4.47717908,31.9083426 Z M15.9991144,31.5359754 L15.7446399,31.5359754 C15.7359387,31.5359754 15.7288065,31.5432891 15.7288065,31.5522117 L15.7288065,31.9018774 C15.7288065,31.9108732 15.7359387,31.9181137 15.7446399,31.9181137 L16.0305672,31.9181137 C16.1381911,31.9181137 16.2851844,31.8993176 16.2851844,31.7270811 C16.2851844,31.6059671 16.2195687,31.5359754 15.9991144,31.5359754 Z M9.41738068,31.5359535 L9.1288145,31.5359535 C9.12004197,31.5359535 9.11298116,31.5432672 9.11298116,31.5522629 L9.11298116,31.8103617 C9.11298116,31.8193575 9.12004197,31.8266711 9.1288145,31.8266711 L9.41738068,31.8266711 C9.5380564,31.8266711 9.61415628,31.7917119 9.61415628,31.6678918 C9.61415628,31.5709859 9.53548883,31.5359535 9.41738068,31.5359535 Z M20.6863107,30.1970948 C20.8471403,30.5635818 20.8556276,30.9499619 20.4725606,31.1548173 C20.4632175,31.1597905 20.4513068,31.1556218 20.4469562,31.1458215 L20.2439044,30.6830868 C20.2395538,30.6732134 20.2447602,30.6621698 20.2546026,30.6581473 C20.3088781,30.6356212 20.3336266,30.5914468 20.3418286,30.5407632 C20.3533113,30.4835704 20.3386904,30.4181864 20.315511,30.3653087 C20.2839156,30.2933424 20.2135928,30.1844421 20.1199479,30.2275927 C20.0048352,30.2923185 20.0865695,30.5490276 20.1273653,30.8216805 C20.1682324,31.0942602 20.1635965,31.3849778 19.856986,31.5264238 C19.4217118,31.7274029 19.1011937,31.381833 18.9337312,31.0002067 C18.8492867,30.808004 18.6767604,30.2330779 19.1869933,29.977539 C19.1962651,29.9728582 19.2078904,29.9771002 19.2120984,29.9867542 L19.4283447,30.4792554 C19.4326953,30.4892019 19.4282734,30.5006112 19.4187877,30.5055845 C19.3844821,30.5234298 19.3561675,30.5447126 19.3345572,30.5670192 C19.2507546,30.6518575 19.2802816,30.7767747 19.323431,30.8752164 C19.3614453,30.9615906 19.4473875,31.0806568 19.5714154,31.023391 C19.6579995,30.9833853 19.6487277,30.8981813 19.601085,30.5651908 C19.5569371,30.2595533 19.4936038,29.91647 19.8306685,29.7608355 C20.2168022,29.5826019 20.531472,29.8442843 20.6863107,30.1970948 Z M6.43209725,29.7737807 L6.81231136,29.987193 C6.82108388,29.9920931 6.82429334,30.0034293 6.81951481,30.0124251 L6.17641021,31.2172758 C6.17163168,31.2262716 6.16057687,31.2295628 6.15180435,31.2245895 L4.57610179,30.340296 C4.56732926,30.3353228 4.5641198,30.3240597 4.56889833,30.3149908 L4.82258837,29.8397498 C4.8273669,29.830754 4.83842171,29.8274629 4.84719423,29.832363 L6.01094468,30.485472 C6.01971721,30.4903721 6.0307007,30.487081 6.03555055,30.4780852 L6.40749138,29.7811675 C6.41234123,29.7720985 6.42332472,29.7688805 6.43209725,29.7737807 Z M19.2697261,28.0700659 L19.6072187,28.4841648 C19.6120685,28.4901619 19.6128531,28.4986458 19.6090017,28.5054475 L18.6505141,30.2005322 C18.6442378,30.2117221 18.6289751,30.2130385 18.6209157,30.2031651 L18.2711558,29.773927 C18.2659494,29.7676372 18.2655215,29.7585683 18.2699434,29.7516935 L18.4063098,29.5422305 C18.4108031,29.5354288 18.4103038,29.5263599 18.4050973,29.519997 L18.0489185,29.0829333 C18.0438547,29.0767167 18.0353675,29.0745226 18.0280927,29.0776675 L17.7992225,29.1747196 C17.7919477,29.1777913 17.7835318,29.1756704 17.7783967,29.1694538 L17.4400482,28.7541847 C17.4319175,28.7443113 17.4359829,28.729172 17.4478935,28.7247838 L19.2496848,28.0644344 C19.2568169,28.0618015 19.2648049,28.0639955 19.2697261,28.0700659 Z M7.4071314,27.9055819 C7.82093787,28.2953263 7.88220291,28.7675687 7.45006686,29.2500502 L6.91037821,29.8526218 C6.90360268,29.8601549 6.89219127,29.8606669 6.88477385,29.8537189 L5.56226208,28.6079848 C5.55491598,28.60111 5.55441673,28.589335 5.56119226,28.5817288 L6.17548303,27.8958547 C6.58857628,27.4347291 7.06692857,27.5851709 7.4071314,27.9055819 Z M18.9671096,28.6792929 L18.4433969,28.9015548 C18.4320568,28.9063818 18.4285621,28.9210091 18.4364074,28.9306631 L18.6271207,29.164773 C18.6348947,29.1742808 18.649373,29.1734763 18.6560772,29.1632372 L18.9704617,28.6833886 L18.9671096,28.6792929 Z M6.39807696,28.3591745 L6.28881266,28.481093 C6.28203713,28.4886992 6.28253638,28.5004742 6.28988248,28.507349 L6.92079113,29.1016562 C6.92820855,29.1086042 6.93969128,29.1080922 6.94646681,29.1005592 L7.0834038,28.9475576 C7.3212605,28.6821453 7.14623791,28.4458412 7.0195712,28.3265556 C6.93448483,28.2464711 6.67401926,28.0511235 6.39807696,28.3591745 Z M17.2720864,26.331465 L17.7018688,26.6462445 C17.7099995,26.6522417 17.7119252,26.6638704 17.7060768,26.6722079 L16.9351643,27.7788363 C16.9293873,27.7871739 16.9312417,27.7988026 16.9393723,27.8047998 L17.5696391,28.2665105 C17.577841,28.2724346 17.5796954,28.2840633 17.5739183,28.2924008 L17.3220113,28.6539877 C17.3162343,28.6623253 17.3048942,28.6643 17.2967636,28.6583028 L16.207116,27.860091 C16.1989141,27.8540938 16.1970597,27.8425382 16.2029081,27.8341275 L17.2467673,26.33578 C17.2526157,26.3273693 17.2638844,26.3254678 17.2720864,26.331465 Z M9.69405045,26.0002297 C9.7677254,26.1568881 9.74226368,26.2814396 9.66787552,26.4008715 C9.65974488,26.4138167 9.6691593,26.4301261 9.68413678,26.4293216 C9.84682078,26.4200333 10.0231985,26.4816142 10.1320349,26.7126524 C10.2915807,27.0516401 10.0875303,27.36876 9.79625394,27.512912 L8.87663647,27.9681867 C8.86757866,27.9726481 8.85673782,27.9687718 8.85238721,27.9594835 L8.07156109,26.3008208 C8.06721049,26.2915324 8.07099052,26.2804157 8.08004833,26.2759544 L8.96742855,25.8368428 C9.40191821,25.6216752 9.61260147,25.8272619 9.69405045,26.0002297 Z M14.3496228,25.1577704 L15.7734109,25.5727469 C15.7830393,25.5755261 15.7886023,25.5857652 15.7858921,25.5956386 L15.6674274,26.0231215 C15.6646458,26.0329949 15.6546608,26.0386995 15.6449611,26.0359204 L14.7642138,25.779065 C14.7545854,25.7762858 14.7445291,25.7819904 14.7418189,25.791937 L14.6892551,25.9814337 C14.6865449,25.9913071 14.6921079,26.0016193 14.7017363,26.0043985 L15.4986097,26.23668 C15.5083094,26.2394592 15.5138725,26.2496983 15.5111623,26.2596449 L15.4017553,26.6541432 C15.3990451,26.6640166 15.3889888,26.6697213 15.3793604,26.6669421 L14.582487,26.4346606 C14.5728586,26.4318814 14.5628023,26.437586 14.5600208,26.4474594 L14.5075283,26.636883 C14.5048181,26.6467564 14.5104525,26.6570687 14.5200808,26.6598478 L15.4280016,26.9244557 C15.4377013,26.927308 15.4432644,26.9376203 15.4405542,26.9474937 L15.3220181,27.3749034 C15.3192365,27.3847769 15.3092516,27.3905546 15.2996232,27.3877023 L13.8486617,26.9647539 C13.8390333,26.9619747 13.8334702,26.9517356 13.8361804,26.9417891 L14.3272279,25.1704961 C14.3299381,25.1606958 14.3399944,25.154918 14.3496228,25.1577704 Z M9.34963966,26.8486132 L9.04702318,26.9983967 C9.03796536,27.002858 9.03418533,27.0139748 9.03853594,27.0232631 L9.17119364,27.3049849 C9.17554425,27.3142733 9.18638509,27.3180764 9.1954429,27.313615 L9.47723355,27.1741437 C9.58357368,27.1214854 9.66145659,27.0449115 9.60012023,26.9145091 C9.55326211,26.8151166 9.46981613,26.7891532 9.34963966,26.8486132 Z M10.6433376,25.2525553 C10.6531086,25.2503612 10.6628083,25.2567241 10.664948,25.2667438 L10.9488783,26.5954146 C10.9510179,26.6055074 10.9607176,26.6118703 10.9704886,26.6096031 L11.7272081,26.4395607 C11.7369792,26.4373666 11.7466789,26.4437295 11.7488185,26.4537492 L11.8415363,26.8876681 C11.8436759,26.8976878 11.8374709,26.9076343 11.8276999,26.9098284 L10.5195237,27.2039103 C10.5097527,27.2061044 10.5001243,27.1997415 10.4979134,27.1897218 L10.11342,25.3907101 C10.1112803,25.3806904 10.1174853,25.3707439 10.1272563,25.3686229 L10.6433376,25.2525553 Z M12.0437323,25.0000073 L12.5718669,25.0135452 C12.5818519,25.0137646 12.5897685,25.0223216 12.5895546,25.0326338 L12.5650913,26.0374562 C12.5603841,26.2295127 12.5546071,26.4689616 12.829123,26.4759827 C13.0959361,26.4827112 13.1017845,26.2433355 13.1064204,26.051279 L13.1308836,25.0465298 C13.1311689,25.0362906 13.1394422,25.0280994 13.1494985,25.0283919 L13.6776331,25.041849 C13.6876181,25.0421416 13.6955347,25.0506254 13.695325,25.0609376 L13.6677194,26.1946266 C13.6550242,26.715651 13.374446,26.958391 12.815144,26.9441294 C12.255842,26.9297947 11.9848209,26.6728661 11.9975161,26.1519148 L12.0251174,25.0181528 C12.0253314,25.0078405 12.033676,24.9997224 12.0437323,25.0000073 Z M9.02990605,26.3026492 L8.77814169,26.4272006 C8.7691552,26.431662 8.76537517,26.4427787 8.76972577,26.452067 L8.87449683,26.6744751 C8.87884744,26.6837635 8.88961696,26.6876397 8.89867477,26.6831784 L9.15036781,26.5585538 C9.25677926,26.5059686 9.30927177,26.4419742 9.2579204,26.3330008 C9.21776648,26.2476505 9.1339639,26.2511611 9.02990605,26.3026492 Z" id="Combined-Shape" fill="#272A67"></path>
        </g>
    </g>
</svg>