<?xml version="1.0" encoding="UTF-8"?>
<svg width="26px" height="48px" viewBox="0 0 26 48" version="1.1" xmlns="http://www.w3.org/2000/svg" xmlns:xlink="http://www.w3.org/1999/xlink">
    <!-- Generator: Sketch 58 (84663) - https://sketch.com -->
    <title>can</title>
    <desc>Created with Sketch.</desc>
    <g id="Page-1" stroke="none" stroke-width="1" fill="none" fill-rule="evenodd">
        <g id="can" fill="#272A67" fill-rule="nonzero">
            <path d="M0.182,10.4721818 L0.182,40.9707273 C0.182,41.8038 0.734229167,42.6284182 1.78159583,43.3656 C3.01513333,45.6774 7.8287625,47.4714 12.8521792,47.4714 C17.8752708,47.4714 22.6888458,45.6773455 23.9243875,43.3656 C24.9717542,42.6283636 25.5239833,41.8038 25.5239833,40.9707273 L25.5239833,10.4721818 C25.5260991,10.4444831 25.5641847,9.31309091 24.54855,7.80670909 C23.8862542,6.82445455 23.2219,6.08514545 22.9044833,5.75061818 C22.9743096,5.35004727 22.9827704,4.83654545 22.9827704,4.83016364 L22.9827704,3.99496364 C22.9827704,1.6278 17.7628913,0.349363636 12.8519787,0.349363636 C7.94312458,0.349363636 2.72118708,1.6278 2.72118708,3.99496364 L2.72118708,4.82803636 C2.72118708,4.83442855 2.72965008,5.34366 2.79947417,5.74423636 C2.46305042,6.08940545 1.7563325,6.85434545 1.14907,7.8174 C0.190590833,9.3366 0.182,10.4253273 0.182,10.4722364 L0.182,10.4721818 Z M12.852125,6.76478733 C9.25513333,6.76478733 6.134375,6.11918182 4.60416667,5.17958182 C4.65706367,3.87987273 8.56087917,2.70370909 12.852125,2.70370909 C17.1410417,2.70370909 21.0491667,3.87981818 21.0979167,5.17958182 C19.5702542,6.12136364 16.4493333,6.76696364 12.852125,6.76478733 L12.852125,6.76478733 Z" id="Shape"></path>
            <path d="M7.64454167,5.60345455 C8.34702917,5.92945091 8.98603333,6.13399636 9.71387083,6.17874545 C11.264825,6.27036545 12.2465958,5.50118182 13.1817833,5.19861818 C13.6726687,5.03881636 14.2482167,4.90671273 14.7919958,4.77248182 C15.151695,4.68299455 15.6108333,4.59137455 15.7843292,4.43796545 C16.0805558,4.17589091 15.5960133,3.80512909 15.14955,3.59632909 C14.700985,3.38965091 13.8165625,3.12544909 13.01885,3.15528 C12.5533525,3.17232545 12.1767208,3.30229636 11.8360667,3.40243636 C11.3219058,3.55371273 10.8035417,3.71351455 10.2364708,3.83709818 C9.1573625,4.07360182 6.78757083,4.19931273 6.6246375,4.74904364 C6.54846833,5.00685818 6.94202167,5.27958545 7.6444875,5.60344364 L7.64454167,5.60345455 Z M12.2910125,3.9522 C12.6739871,3.84992727 13.2368167,3.88401818 13.5478417,4.02677455 C13.8567596,4.16953091 13.7975175,4.36981636 13.4145429,4.47208909 C13.0315683,4.57436182 12.4687387,4.54027091 12.1598262,4.39751455 C11.8466779,4.25475818 11.9080379,4.05447273 12.2910125,3.9522 L12.2910125,3.9522 Z M8.5226375,4.56158182 C9.27799167,4.36129636 10.3825042,4.42521818 10.9939917,4.70859818 C11.6033667,4.99197818 11.486995,5.38403455 10.7316192,5.58432545 C9.9783775,5.78673818 8.86964,5.72068909 8.260265,5.43730909 C7.6487775,5.15818909 7.76726167,4.764 8.5226375,4.56158182 Z" id="Shape"></path>
        </g>
    </g>
</svg>