<?xml version="1.0" encoding="UTF-8"?>
<svg width="100pt" height="100pt" version="1.1" viewBox="0 0 100 100" xmlns="http://www.w3.org/2000/svg">
 <g>
  <path d="m23.336 27.199v55.914c0 1.5273 1.0195 3.0391 2.9531 4.3906 2.2773 4.2383 11.164 7.5273 20.438 7.5273 9.2734 0 18.16-3.2891 20.441-7.5273 1.9336-1.3516 2.9531-2.8633 2.9531-4.3906v-55.914c0.003906-0.050781 0.074218-2.125-1.8008-4.8867-1.2227-1.8008-2.4492-3.1562-3.0352-3.7695 0.12891-0.73438 0.14453-1.6758 0.14453-1.6875v-1.5312c0-4.3398-9.6367-6.6836-18.703-6.6836-9.0625 0-18.703 2.3438-18.703 6.6836v1.5273c0 0.011719 0.015624 0.94531 0.14453 1.6797-0.62109 0.63281-1.9258 2.0352-3.0469 3.8008-1.7695 2.7852-1.7852 4.7812-1.7852 4.8672zm23.391-6.7969c-6.6406 0-12.402-1.1836-15.227-2.9062 0.097656-2.3828 7.3047-4.5391 15.227-4.5391 7.918 0 15.133 2.1562 15.223 4.5391-2.8203 1.7266-8.582 2.9102-15.223 2.9062z"/>
  <path d="m37.113 18.273c1.2969 0.59766 2.4766 0.97266 3.8203 1.0547 2.8633 0.16797 4.6758-1.2422 6.4023-1.7969 0.90625-0.29297 1.9688-0.53516 2.9727-0.78125 0.66406-0.16406 1.5117-0.33203 1.832-0.61328 0.54688-0.48047-0.34766-1.1602-1.1719-1.543-0.82812-0.37891-2.4609-0.86328-3.9336-0.80859-0.85938 0.03125-1.5547 0.26953-2.1836 0.45312-0.94922 0.27734-1.9062 0.57031-2.9531 0.79688-1.9922 0.43359-6.3672 0.66406-6.668 1.6719-0.14062 0.47266 0.58594 0.97266 1.8828 1.5664zm8.5781-3.0273c0.70703-0.1875 1.7461-0.125 2.3203 0.13672 0.57031 0.26172 0.46094 0.62891-0.24609 0.81641s-1.7461 0.125-2.3164-0.13672c-0.57812-0.26172-0.46484-0.62891 0.24219-0.81641zm-6.957 1.1172c1.3945-0.36719 3.4336-0.25 4.5625 0.26953 1.125 0.51953 0.91016 1.2383-0.48438 1.6055-1.3906 0.37109-3.4375 0.25-4.5625-0.26953-1.1289-0.51172-0.91016-1.2344 0.48438-1.6055z"/>
 </g>
</svg>
