<svg aria-hidden="true" style="position: absolute; width: 0; height: 0; overflow: hidden;" version="1.1" xmlns="http://www.w3.org/2000/svg" xmlns:xlink="http://www.w3.org/1999/xlink">
<defs>
<symbol id="icon-inline-logo" viewBox="0 0 366 32">
<title>inline-logo</title>
<path d="M346.713 8.527h-7.491c-0.307 0-0.555-0.248-0.555-0.555v-6.75c0-0.307 0.248-0.555 0.555-0.555h25.556c0.307 0 0.556 0.248 0.556 0.555v6.75c0 0.306-0.249 0.555-0.556 0.555h-7.491c-0.307 0-0.555 0.248-0.555 0.555v21.698c0 0.306-0.249 0.555-0.555 0.555h-8.351c-0.307 0-0.556-0.248-0.556-0.555v-21.698c0-0.306-0.249-0.555-0.555-0.555z"></path>
<path d="M318.133 21.005c0.283 0 0.525 0.216 0.546 0.5 0.042 0.567 0.156 1.078 0.321 1.51 0.679 1.84 2.718 2.225 4.459 2.225 1.529 0 3.865-0.513 3.865-2.781 0-1.583-1.317-2.011-6.54-3.508-4.799-1.369-10.277-2.695-10.277-8.856 0-7.059 5.988-10.096 12.231-10.096 6.404 0 12.084 2.389 12.623 9.372 0.025 0.321-0.229 0.596-0.548 0.596h-7.674c-0.3 0-0.534-0.244-0.547-0.546-0.037-0.858-0.498-1.465-1.134-1.892-0.765-0.556-1.826-0.77-2.761-0.77-1.274 0-3.355 0.342-3.355 2.053 0.17 2.182 4.502 2.652 8.791 3.85s8.536 3.208 8.536 8.813c0 7.957-7.262 10.524-14.015 10.524-3.371 0-12.857-1.191-13.318-10.415-0.016-0.315 0.236-0.58 0.549-0.58h8.25z"></path>
<path d="M294.099 20.381c0.363 0 0.624-0.355 0.523-0.71l-2.497-8.74h-0.084l-2.689 8.729c-0.11 0.357 0.152 0.721 0.52 0.721h4.228zM287.906 0.667h8.309c0.229 0 0.434 0.146 0.512 0.365l10.572 29.557c0.129 0.362-0.134 0.744-0.512 0.744h-8.433c-0.242 0-0.455-0.162-0.523-0.398l-1.036-3.585c-0.068-0.236-0.281-0.398-0.522-0.398h-8.769c-0.238 0-0.449 0.157-0.52 0.389l-1.11 3.604c-0.071 0.231-0.282 0.389-0.52 0.389h-8.142c-0.379 0-0.642-0.384-0.511-0.746l10.694-29.557c0.079-0.218 0.283-0.363 0.511-0.363v0z"></path>
<path d="M252.546 0.667h8.211c0.302 0 0.546 0.248 0.546 0.555v21.697c0 0.306 0.244 0.555 0.546 0.555h12.271c0.302 0 0.546 0.248 0.546 0.555v6.751c0 0.306-0.245 0.555-0.546 0.555h-21.574c-0.302 0-0.546-0.248-0.546-0.555v-29.557c0-0.306 0.245-0.555 0.546-0.555z"></path>
<path d="M206.543 0.667h23.783c0.3 0 0.543 0.248 0.543 0.555v6.75c0 0.307-0.243 0.555-0.543 0.555h-14.526c-0.3 0-0.543 0.248-0.543 0.555v2.713c0 0.306 0.243 0.555 0.543 0.555h13.095c0.3 0 0.543 0.248 0.543 0.555v6.192c0 0.306-0.243 0.555-0.543 0.555h-13.095c-0.3 0-0.543 0.248-0.543 0.555v2.713c0 0.306 0.243 0.555 0.543 0.555h14.988c0.3 0 0.543 0.248 0.543 0.555v6.751c0 0.306-0.243 0.555-0.543 0.555h-24.246c-0.3 0-0.543-0.248-0.543-0.555v-29.557c0-0.306 0.243-0.555 0.543-0.555z"></path>
<path d="M200.667 19.441c0 8.487-4.602 12.559-13.978 12.559s-14.022-4.072-14.022-12.559v-18.221c0-0.306 0.249-0.554 0.555-0.554h8.351c0.307 0 0.555 0.248 0.555 0.554v16.12c0 3.129 0 7.030 4.602 7.030 4.473 0 4.473-3.9 4.473-7.030v-16.12c0-0.306 0.249-0.554 0.555-0.554h8.352c0.307 0 0.555 0.248 0.555 0.554v18.221z"></path>
<path d="M35.88 0.667h8.211c0.302 0 0.546 0.248 0.546 0.555v21.697c0 0.306 0.245 0.555 0.546 0.555h12.271c0.301 0 0.546 0.248 0.546 0.555v6.751c0 0.306-0.245 0.555-0.546 0.555h-21.575c-0.302 0-0.546-0.248-0.546-0.555v-29.557c0-0.306 0.245-0.555 0.546-0.555z"></path>
<path d="M122.071 23.477c0 0.306 0.247 0.555 0.552 0.555h4.962c1.966 0 3.676-0.558 3.676-2.921 0-1.804-1.069-2.792-3.292-2.792h-5.347c-0.305 0-0.552 0.248-0.552 0.555v4.603zM122.623 12.607l6.521-0c0.217 0 0.414-0.128 0.504-0.326 1.468-3.251 0.035-4.313-2.618-4.313h-4.407c-0.305 0-0.552 0.248-0.552 0.555v3.529c0 0.306 0.247 0.555 0.552 0.555v0zM112.667 1.221c0-0.306 0.247-0.555 0.552-0.555h16.162c8.036 0 9.747 4.553 9.747 7.688 0 2.656-1.104 4.267-2.851 5.458-0.352 0.24-0.311 0.774 0.073 0.956 2.337 1.11 4.317 3.281 4.317 7.244 0 6.142-5.301 9.32-10.687 9.32h-16.761c-0.305 0-0.552-0.248-0.552-0.555v-29.557z"></path>
<path d="M72.782 22.919c0 0.306 0.248 0.555 0.555 0.555h3.139c5.884 0 6.743-4.768 6.743-7.645 0-1.933-0.601-7.302-7.43-7.302h-2.452c-0.306 0-0.555 0.248-0.555 0.555v13.837zM63.333 1.221c0-0.307 0.248-0.555 0.554-0.555h14.95c10.221 0 13.829 7.559 13.829 15.29 0 9.406-4.982 15.376-15.676 15.376h-13.103c-0.306 0-0.554-0.248-0.554-0.555v-29.557z"></path>
<path d="M145.213 0.667h8.211c0.302 0 0.546 0.248 0.546 0.555v21.697c0 0.306 0.244 0.555 0.546 0.555h12.271c0.301 0 0.546 0.248 0.546 0.555v6.751c0 0.306-0.245 0.555-0.546 0.555h-21.575c-0.302 0-0.546-0.248-0.546-0.555v-29.557c0-0.306 0.245-0.555 0.546-0.555z"></path>
<path d="M15.333 24.385c2.372 0 6.015-1.583 6.015-8.385s-3.643-8.385-6.015-8.385c-2.372 0-6.015 1.583-6.015 8.385s3.643 8.385 6.015 8.385zM15.333 0c9.192 0 15.333 6.674 15.333 16s-6.142 16-15.333 16c-9.192 0-15.333-6.674-15.333-16s6.142-16 15.333-16z"></path>
</symbol>
<symbol id="icon-beer" viewBox="0 0 234 32">
<title>beer</title>
<path d="M199.398 7.981c0.847 0.96 2.692 0.922 3.765 1.619-1.857 0.255-3.452 0.571-5.013 0.97l0.307-0.066c0.32-0.828 0.602-1.694 0.904-2.522z"></path>
<path d="M188.932 11.294c-0.433 2.033-1.355 4.348-1.882 6.588 2.861 0 5.892-0.546 8.828-0.734 0.359-0.54 0.643-1.168 0.819-1.839l0.010-0.043c0.433 0.631 0.691 1.41 0.691 2.25 0 0.489-0.088 0.958-0.248 1.392l0.009-0.028c-4.48 0-7.699 3.595-12.104 3.595-1.882 0-3.633-1.129-2.692-3.332 1.318-3.106 4.574-5.289 6.569-7.755z"></path>
<path d="M202.654 4.367c-1.148 0.151-1.882 1.393-2.711 1.882 0 0 0.113 0 0 0 0.177-0.524 0.334-1.158 0.442-1.809l0.010-0.074c-6.005-2.108-11.84 0.979-16.151 3.351-3.308 1.78-6.155 3.877-8.668 6.315l0.010-0.009c0.791-1.318 1.619-2.635 2.522-3.878s1.882-2.391 2.805-3.52c-1.882-0.471-3.595-0.96-5.421-1.355-2.466-0.64-6.080-1.506-8.188-0.358-0.621 0.339-1.129 1.186-1.713 1.261-0.719-0.087-1.358-0.212-1.979-0.38l0.097 0.022c-0.594-0.062-1.282-0.098-1.979-0.098-1.506 0-2.974 0.166-4.385 0.481l0.134-0.025c-1.882 0.376-5.798 1.035-6.306 2.786-0.32 1.129 0.395 2.24 0.264 3.351-0.378 1.311-0.965 2.453-1.731 3.45l0.018-0.024c-0.538 1.087-1.381 1.954-2.417 2.508l-0.030 0.015c-0.139-0.931-0.218-2.006-0.218-3.099 0-2.175 0.313-4.276 0.897-6.262l-0.040 0.157c0.387-1.037 0.612-2.236 0.612-3.486 0-0.637-0.058-1.261-0.17-1.866l0.010 0.063c-1.732-0.245-3.181 1.111-4.875 1.882-3.2 1.28-6.758 2.447-7.209 6.136-0.005 0.117-0.009 0.254-0.009 0.392 0 1.605 0.422 3.112 1.161 4.415l-0.023-0.044c1.196 3.169 2.687 5.909 4.495 8.404l-0.071-0.103c-0.489 0.866-1.6 1.111-1.713 2.334 0.539 0.529 1.279 0.855 2.095 0.855 0.184 0 0.365-0.017 0.54-0.049l-0.018 0.003c2.926-0.252 5.575-1.258 7.807-2.82l-0.051 0.034c4.894-2.748 8.169-7.002 11.633-11.012 0.529-0.731 1.151-1.354 1.858-1.866l0.024-0.016c0.791 3.558-0.715 5.459-1.788 8.395-0.414 1.111-1.732 4.631-1.092 6.306s6.626 1.882 8.207 0.715c0.791-0.584 1.111-1.882 1.544-2.786s0.998-2.014 1.431-2.974c0 3.953 2.955 5.101 6.136 5.948 6.739 1.882 13.553-1.412 17.224-3.614-0.452 2.936 0.678 3.219 2.974 3.765 5.948 1.224 11.934-0.188 16.772-1.355 4.442-1.073 8.019-1.882 8.659-6.231-0.699-0.334-1.52-0.529-2.386-0.529-0.49 0-0.965 0.062-1.418 0.18l0.039-0.009c-3.576 0.527-7.040 2.334-11.821 1.976-0.866 0-2.748-0.358-2.88-0.885-0.207-0.847 1.28-1.431 2.522-1.638 3.576-0.602 8.753 0 11.633-1.073 1.626-0.535 2.795-2.003 2.88-3.755l0-0.010c-0.094-1.129-1.581-1.713-2.974-1.882-3.934-0.245-6.758 2.052-10.899 1.261 0.508-0.659 0.602-1.732 1.261-2.259 3.031 0 5.967 0.527 8.828 0.358 3.306-0.103 6.222-1.691 8.114-4.117l0.018-0.024c0.188-0.245 0.696-0.508 0.527-0.904-6.908-1.054-16.358-3.765-24.885-2.805zM234.014 4.725c0.113 0.433-0.376 0.866-0.621 1.186-2.129 2.971-4.535 5.545-7.235 7.776l-0.069 0.055c0.081 0.369 0.128 0.794 0.128 1.229 0 0.706-0.123 1.384-0.348 2.013l0.013-0.042c0.759 0.894 1.393 1.927 1.854 3.048l0.028 0.077c-0.43 2.991-1.991 5.553-4.228 7.284l-0.026 0.019c-2.437 1.454-5.293 2.499-8.341 2.958l-0.129 0.016c-6.475 1.487-17.111 2.955-21.911-0.904-5.195 3.049-15.699 3.445-20.574-0.169-3.445 4.367-17.073 3.972-15.059-4.706-2.851 2.275-6.079 4.292-9.528 5.916l-0.298 0.126c-4.141 1.732-11.972 1.544-11.181-4.329 0.128-0.65 0.377-1.226 0.725-1.728l-0.010 0.015c-0.922-1.511-1.83-3.287-2.609-5.13l-0.102-0.272c-0.937-1.808-1.601-3.914-1.873-6.141l-0.009-0.090c-0.264-5.214 3.765-8.546 7.849-10.089 1.515-0.783 3.432-1.632 5.399-2.382l0.418-0.14c0.473-0.195 1.023-0.309 1.599-0.309 2.234 0 4.069 1.707 4.273 3.887l0.001 0.017c2.879-1.056 6.203-1.667 9.67-1.667 1.010 0 2.007 0.052 2.99 0.153l-0.123-0.010c3.765-2.899 10.993-1.111 15.774 0.264 0.945 0.436 2.056 0.817 3.211 1.087l0.121 0.024c0.978-0.353 1.823-0.785 2.603-1.307l-0.043 0.027c2.896-1.519 6.326-2.411 9.965-2.411 0.906 0 1.8 0.055 2.677 0.163l-0.105-0.011c0.922 0.151 1.751 0.621 2.711 0.715 0.659 0 1.468-0.151 2.165-0.169 11.294-0.546 20.536 2.447 30.118 3.953z"></path>
<path d="M113.205 27.125h6.024v-7.209l7.021-12.386h-6.607l-3.388 7.209-3.313-7.209h-6.626l6.889 12.367zM94.381 12.198h3.181c1.242 0 2.071 0.358 2.071 1.355s-0.809 1.619-2.071 1.619h-3.144zM88.471 27.125h11.106c3.445 0 6.852-2.033 6.852-5.948 0.006-0.093 0.010-0.202 0.010-0.312 0-2.154-1.425-3.976-3.383-4.574l-0.034-0.009c1.43-0.634 2.41-2.041 2.41-3.677 0-0.031-0-0.062-0.001-0.093l0 0.005c-0.019-2.071-1.167-4.988-6.325-4.988h-10.635zM94.419 18.824h3.765c1.431 0 2.108 0.64 2.108 1.788 0 1.506-1.092 1.882-2.353 1.882h-3.52zM64.941 12.198h2.824c2.296 0 2.974 0.715 2.974 1.882 0 1.751-1.525 1.882-2.654 1.882h-3.144zM58.918 27.125h6.024v-6.833h3.219c2.391 0 2.541 1.882 2.711 3.765 0.067 1.107 0.241 2.143 0.514 3.137l-0.025-0.107h6.042c-0.418-1.21-0.66-2.605-0.66-4.056 0-0.050 0-0.1 0.001-0.149l-0 0.008c0.001-0.042 0.002-0.092 0.002-0.143 0-2.049-1.157-3.828-2.853-4.719l-0.029-0.014c1.751-0.817 2.943-2.562 2.943-4.586 0-0.089-0.002-0.177-0.007-0.264l0.001 0.012c0-3.765-2.974-5.647-6.4-5.647h-11.482zM39.624 27.125h16.489v-5.026h-10.466v-2.428h9.242v-4.612h-9.242v-2.504h10.165v-5.026h-16.188zM20.311 27.125h16.508v-5.026h-10.466v-2.428h9.242v-4.612h-9.242v-2.504h10.165v-5.026h-16.207zM6.024 12.198h3.181c1.242 0 2.071 0.358 2.071 1.355s-0.809 1.619-2.071 1.619h-3.181zM0 27.125h11.106c3.445 0 6.852-2.033 6.852-5.948 0.006-0.093 0.010-0.202 0.010-0.312 0-2.154-1.425-3.976-3.383-4.574l-0.034-0.009c1.422-0.637 2.394-2.040 2.394-3.67 0-0.060-0.001-0.12-0.004-0.179l0 0.008c0-1.995-1.073-4.913-6.231-4.913h-10.711zM6.024 18.824h3.765c1.431 0 2.127 0.64 2.127 1.788 0 1.506-1.111 1.882-2.372 1.882h-3.52z"></path>
</symbol>
<symbol id="icon-drinkaware" viewBox="0 0 497 32">
<title>drinkaware</title>
<path d="M23.116 2.52v21.754c0 2.391 0.079 4.826 0.157 6.121h-6.281l-0.273-2.627h-0.079c-1.297 2.199-3.616 3.057-5.853 3.057-4.474 0-8.204-3.884-8.204-9.969-0.041-6.479 4.084-10.211 8.637-10.211 2.118 0 3.887 0.628 4.751 1.85h0.079v-9.975h7.066zM16.050 19.404c0-0.279 0-0.588-0.041-0.908-0.273-1.329-1.335-2.467-2.825-2.467-2.356 0-3.418 2.115-3.418 4.666 0 2.95 1.455 4.521 3.418 4.521 1.411 0 2.513-1.024 2.746-2.319 0.079-0.396 0.119-0.867 0.119-1.295v-2.199z"></path>
<path d="M28.69 17.596c0-3.063-0.079-4.908-0.154-6.519h6.042l0.236 3.497h0.16c1.018-2.947 3.494-3.927 5.143-3.927 0.625 0 0.899 0 1.411 0.119v6.636c-0.512-0.119-1.059-0.201-1.807-0.201-2.080 0-3.494 0.867-3.849 2.435-0.076 0.355-0.113 0.748-0.113 1.219v9.542h-7.069v-12.8z"></path>
<path d="M58.176 17.633c0-2.551-0.079-4.788-0.157-6.557h6.086l0.314 2.479h0.154c0.71-1.024 2.557-2.906 5.775-2.906 4.515 0 6.947 3.057 6.947 8.364v11.386h-7.066v-10.522c0-2.243-0.783-3.535-2.473-3.535-1.376 0-2.001 0.943-2.316 1.69-0.157 0.352-0.198 0.896-0.198 1.408v10.959h-7.066v-12.765z"></path>
<path d="M89.744 18.932h0.081c0.431-0.864 0.823-1.647 1.257-2.359l3.177-5.492h8.442l-6.673 7.776 7.66 11.537h-8.716l-3.811-7.38-1.417 1.888v5.492h-7.063v-27.875h7.063v16.413z"></path>
<path d="M123.903 25.684c0 1.923 0.079 3.729 0.314 4.713h-6.362l-0.393-1.69h-0.119c-1.373 1.53-3.296 2.118-5.376 2.118-3.927 0-6.359-2.865-6.359-6.083 0-5.184 4.631-7.459 11.188-7.497v-0.16c0-0.783-0.588-1.649-3.139-1.649-2.045 0-4.204 0.707-5.46 1.455l-1.254-4.512c1.254-0.631 4.003-1.731 8.009-1.731 6.633 0 8.951 3.689 8.951 8.518v6.519zM117.032 21.562c-2.868 0-4.515 0.823-4.515 2.513 0 1.216 0.826 1.841 2.001 1.841 1.021 0 2.121-0.701 2.435-1.763 0.079-0.317 0.079-0.669 0.079-1.021v-1.571z"></path>
<path d="M134.19 11.077l1.137 7.11c0.314 1.923 0.628 4.122 0.943 6.4h0.076c0.355-2.278 0.905-4.518 1.297-6.362l1.53-7.148h5.536l1.457 6.871c0.465 2.161 0.94 4.361 1.292 6.639h0.079c0.236-2.278 0.591-4.518 0.945-6.717l1.175-6.793h6.912l-5.772 19.322h-6.676l-1.335-5.737c-0.393-1.804-0.666-3.418-1.059-5.888h-0.079c-0.276 2.47-0.591 4.16-1.021 5.812l-1.414 5.812h-6.673l-5.539-19.322h7.188z"></path>
<path d="M177.102 25.684c0 1.923 0.079 3.729 0.314 4.713h-6.362l-0.393-1.69h-0.116c-1.376 1.53-3.299 2.118-5.376 2.118-3.927 0-6.365-2.865-6.365-6.083 0-5.184 4.631-7.459 11.191-7.497v-0.16c0-0.783-0.588-1.649-3.139-1.649-2.045 0-4.204 0.707-5.46 1.455l-1.254-4.512c1.254-0.631 4.003-1.731 8.009-1.731 6.636 0 8.951 3.689 8.951 8.518v6.519zM170.23 21.562c-2.865 0-4.515 0.823-4.515 2.513 0 1.216 0.823 1.841 2.004 1.841 1.018 0 2.118-0.701 2.432-1.763 0.079-0.317 0.079-0.669 0.079-1.021v-1.571z"></path>
<path d="M182.579 17.596c0-3.063-0.079-4.908-0.157-6.519h6.045l0.239 3.497h0.154c1.021-2.947 3.497-3.927 5.143-3.927 0.631 0 0.905 0 1.414 0.119v6.636c-0.509-0.119-1.059-0.201-1.807-0.201-2.077 0-3.494 0.867-3.846 2.435-0.079 0.355-0.119 0.748-0.119 1.219v9.542h-7.066v-12.8z"></path>
<path d="M204.998 23.213c0.236 1.527 2.473 2.394 4.948 2.394 1.841 0 3.572-0.198 5.3-0.748l0.899 4.716c-2.313 0.937-4.826 1.251-7.223 1.251-6.79 0-10.639-3.767-10.639-9.894 0-4.512 2.906-10.287 10.013-10.287 6.24 0 8.911 4.593 8.911 9.897 0 1.178-0.157 2.196-0.273 2.671h-11.936zM210.691 18.424c0-1.103-0.509-3.145-2.749-3.145-2.080 0-2.903 1.923-3.023 3.145h5.772z"></path>
<path d="M224.909 30.826c-2.356 0-4.003-1.728-4.003-4.119 0-2.435 1.687-4.122 4.044-4.122 2.353 0 4.003 1.644 4.044 4.122 0 2.391-1.652 4.119-4.044 4.119h-0.041z"></path>
<path d="M248.082 30.003c-1.175 0.512-3.183 0.823-5.338 0.823-6.403 0-10.444-3.767-10.444-9.932 0-5.498 3.767-10.249 11.305-10.249 1.414 0 3.104 0.198 4.477 0.669l-1.021 5.222c-0.669-0.276-1.609-0.509-3.023-0.509-2.671 0-4.515 1.804-4.515 4.631 0 3.139 2.193 4.634 4.672 4.634 1.216 0 2.24-0.119 3.098-0.474l0.788 5.184z"></path>
<path d="M271.44 20.543c0 7.028-5.030 10.281-10.444 10.281-5.772 0-10.246-3.686-10.246-9.969 0-6.124 4.038-10.205 10.636-10.205 6.048 0 10.054 4.081 10.054 9.894zM258.046 20.732c0 2.874 0.945 5.105 3.145 5.105 1.885 0 2.947-1.999 2.947-5.105 0-2.668-0.87-5.097-2.985-5.097-2.319 0-3.107 2.548-3.107 5.097z"></path>
<path d="M278.411 30.826c-2.362 0-4.009-1.728-4.009-4.119 0-2.435 1.687-4.122 4.047-4.122 2.353 0 4.006 1.644 4.041 4.122 0 2.391-1.647 4.119-4.041 4.119h-0.038z"></path>
<path d="M305.835 23.798c0 2.752 0.076 4.948 0.157 6.598h-6.086l-0.314-2.551h-0.16c-0.704 1.056-2.394 2.982-5.85 2.982-4.317 0-6.833-2.787-6.833-8.361v-11.389h7.069v10.249c0 2.473 0.823 3.808 2.479 3.808 1.332 0 1.996-0.902 2.275-1.647 0.157-0.273 0.192-0.628 0.192-1.021v-11.389h7.072v12.721z"></path>
<path d="M318.514 18.932h0.076c0.436-0.864 0.829-1.647 1.26-2.359l3.183-5.492h8.436l-6.673 7.776 7.654 11.537h-8.71l-3.814-7.38-1.411 1.888v5.492h-7.069v-27.875h7.069v16.413z"></path>
<path d="M45.533 30.397h6.996v-19.325h-6.996z"></path>
<path d="M48.988 8.244c-2.33 0-3.965-1.725-3.965-4.122 0-2.435 1.676-4.122 4.009-4.122 2.33 0 3.962 1.649 4.003 4.122 0 2.397-1.635 4.122-4.003 4.122h-0.044z"></path>
<path d="M345.448 30.372v-10.173h-1.728v-3.020h1.728v-0.512c0-1.594 0.486-3.345 1.67-4.425 1.027-0.972 2.458-1.324 3.642-1.324 0.919 0 1.623 0.108 2.188 0.268l-0.166 3.159c-0.349-0.108-0.777-0.189-1.321-0.189-1.347 0-1.911 1.053-1.911 2.345v0.678h2.641v3.020h-2.615v10.173h-4.128z"></path>
<path d="M367.761 23.625c0 4.829-3.43 7.046-6.964 7.046-3.857 0-6.822-2.54-6.822-6.804 0-4.262 2.807-6.985 7.043-6.985 4.044 0 6.743 2.781 6.743 6.743zM358.21 23.761c0 2.263 0.943 3.965 2.7 3.965 1.588 0 2.612-1.591 2.612-3.965 0-1.972-0.756-3.965-2.612-3.965-1.972 0-2.7 2.025-2.7 3.965z"></path>
<path d="M370.971 21.523c0-1.943-0.058-3.212-0.108-4.343h3.535l0.134 2.429h0.108c0.675-1.917 2.292-2.729 3.558-2.729 0.381 0 0.57 0 0.864 0.055v3.887c-0.294-0.084-0.643-0.134-1.105-0.134-1.507 0-2.537 0.809-2.804 2.077-0.052 0.268-0.081 0.593-0.081 0.916v6.691h-4.099v-8.849z"></path>
<path d="M392.877 13.591v3.584h2.941v3.023h-2.941v4.78c0 1.591 0.378 2.319 1.617 2.319 0.567 0 0.812-0.026 1.216-0.108l0.023 3.104c-0.538 0.212-1.507 0.375-2.671 0.375-1.321 0-2.429-0.483-3.072-1.158-0.756-0.783-1.135-2.051-1.135-3.913v-5.399h-1.754v-3.023h1.754v-2.479l4.020-1.105z"></path>
<path d="M399.053 11.216h4.099v7.529h0.058c0.428-0.567 0.972-1.030 1.617-1.35 0.62-0.326 1.376-0.512 2.129-0.512 2.618 0 4.617 1.804 4.617 5.772v7.718h-4.102v-7.258c0-1.728-0.596-2.915-2.132-2.915-1.079 0-1.751 0.704-2.051 1.431-0.108 0.271-0.137 0.62-0.137 0.916v7.825h-4.099v-19.156z"></path>
<path d="M418.696 25.082c0.134 1.699 1.809 2.508 3.724 2.508 1.402 0 2.534-0.186 3.642-0.538l0.538 2.778c-1.347 0.541-2.996 0.838-4.774 0.838-4.48 0-7.043-2.615-7.043-6.743 0-3.348 2.080-7.040 6.665-7.040 4.262 0 5.882 3.313 5.882 6.58 0 0.704-0.084 1.321-0.137 1.617h-8.497zM423.525 22.275c0-0.995-0.431-2.671-2.321-2.671-1.725 0-2.426 1.565-2.534 2.671h4.855z"></path>
<path d="M437.338 30.372v-10.173h-1.725v-3.020h1.725v-0.512c0-1.594 0.486-3.345 1.673-4.425 1.024-0.972 2.455-1.324 3.642-1.324 0.916 0 1.617 0.108 2.185 0.268l-0.163 3.159c-0.349-0.108-0.78-0.189-1.321-0.189-1.35 0-1.914 1.053-1.914 2.345v0.678h2.644v3.020h-2.618v10.173h-4.128z"></path>
<path d="M457.948 27.159c0 1.271 0.058 2.484 0.189 3.212h-3.695l-0.244-1.324h-0.079c-0.861 1.056-2.211 1.62-3.776 1.62-2.671 0-4.268-1.943-4.268-4.047 0-3.424 3.081-5.073 7.744-5.044v-0.186c0-0.707-0.378-1.702-2.4-1.702-1.35 0-2.775 0.457-3.642 0.995l-0.756-2.641c0.922-0.515 2.729-1.158 5.126-1.158 4.401 0 5.801 2.586 5.801 5.687v4.588zM453.957 24.136c-2.159-0.026-3.828 0.489-3.828 2.083 0 1.047 0.701 1.559 1.615 1.559 1.027 0 1.865-0.672 2.132-1.51 0.052-0.215 0.081-0.46 0.081-0.701v-1.431z"></path>
<path d="M471.764 30.048c-0.73 0.323-2.103 0.62-3.668 0.62-4.268 0-6.991-2.618-6.991-6.772 0-3.855 2.644-7.014 7.555-7.014 1.079 0 2.266 0.186 3.13 0.509l-0.646 3.049c-0.486-0.212-1.216-0.399-2.295-0.399-2.159 0-3.561 1.536-3.535 3.692 0 2.432 1.62 3.7 3.616 3.7 0.972 0 1.728-0.163 2.348-0.436l0.486 3.052z"></path>
<path d="M479.857 13.591v3.584h2.941v3.023h-2.941v4.78c0 1.591 0.378 2.319 1.617 2.319 0.564 0 0.809-0.026 1.216-0.108l0.023 3.104c-0.535 0.212-1.507 0.375-2.671 0.375-1.321 0-2.429-0.483-3.072-1.158-0.759-0.783-1.137-2.051-1.137-3.913v-5.399h-1.751v-3.023h1.751v-2.479l4.023-1.105z"></path>
<path d="M485.954 26.784c0.756 0.457 2.319 0.998 3.535 0.998 1.239 0 1.751-0.433 1.751-1.105 0-0.678-0.401-0.998-1.94-1.513-2.726-0.916-3.779-2.403-3.75-3.939 0-2.484 2.103-4.343 5.367-4.343 1.539 0 2.915 0.352 3.724 0.753l-0.727 2.836c-0.596-0.323-1.728-0.759-2.86-0.759-1.001 0-1.565 0.407-1.565 1.079 0 0.62 0.512 0.948 2.129 1.513 2.511 0.864 3.564 2.129 3.59 4.073 0 2.458-1.943 4.291-5.719 4.291-1.728 0-3.264-0.407-4.265-0.943l0.73-2.941z"></path>
</symbol>
<symbol id="icon-logo" viewBox="0 0 70 32">
<title>logo</title>
<path d="M45.382 26.042c0 0.034 0.028 0.061 0.061 0.061h1.106c0.416 0 0.985-0.071 0.985-0.721 0-0.457-0.254-0.721-1.107-0.721h-0.985c-0.034 0-0.061 0.028-0.061 0.061v1.319zM43.148 22.997c0-0.034 0.027-0.061 0.061-0.061h4.193c1.269 0 2.366 0.701 2.366 2.072 0 0.707-0.306 1.45-0.96 1.764-0.046 0.022-0.047 0.087-0.002 0.11 0.536 0.273 0.865 0.912 0.941 1.752 0.028 0.328 0.039 1.090 0.201 1.468 0.017 0.041-0.012 0.085-0.057 0.085h-2.088c-0.027 0-0.051-0.018-0.059-0.044-0.102-0.352-0.14-0.712-0.169-1.072-0.061-0.691-0.122-1.412-1.005-1.412h-1.127c-0.034 0-0.061 0.027-0.061 0.061v2.406c0 0.034-0.028 0.061-0.061 0.061h-2.111c-0.034 0-0.061-0.027-0.061-0.061v-7.128z"></path>
<path d="M26.394 22.936h5.879c0.034 0 0.061 0.027 0.061 0.061v1.736c0 0.034-0.028 0.061-0.061 0.061h-3.645c-0.034 0-0.061 0.028-0.061 0.062v0.781c0 0.034 0.027 0.061 0.061 0.061h3.299c0.034 0 0.061 0.028 0.061 0.061v1.604c0 0.034-0.028 0.061-0.061 0.061h-3.299c-0.034 0-0.061 0.027-0.061 0.061v0.781c0 0.034 0.027 0.062 0.061 0.062h3.756c0.034 0 0.061 0.027 0.061 0.061v1.736c0 0.034-0.028 0.061-0.061 0.061h-5.99c-0.034 0-0.061-0.028-0.061-0.061v-7.128c0-0.034 0.027-0.061 0.061-0.061z"></path>
<path d="M34.802 22.936h5.879c0.034 0 0.061 0.027 0.061 0.061v1.736c0 0.034-0.028 0.061-0.061 0.061h-3.645c-0.034 0-0.061 0.028-0.061 0.062v0.781c0 0.034 0.027 0.061 0.061 0.061h3.299c0.034 0 0.061 0.028 0.061 0.061v1.604c0 0.034-0.028 0.061-0.061 0.061h-3.299c-0.034 0-0.061 0.027-0.061 0.061v0.781c0 0.034 0.027 0.062 0.061 0.062h3.756c0.034 0 0.061 0.027 0.061 0.061v1.736c0 0.034-0.028 0.061-0.061 0.061h-5.99c-0.034 0-0.061-0.028-0.061-0.061v-7.128c0-0.034 0.027-0.061 0.061-0.061z"></path>
<path d="M19.783 28.398c0 0.034 0.027 0.061 0.061 0.061h1.249c0.467 0 0.873-0.132 0.873-0.69 0-0.427-0.254-0.66-0.782-0.66h-1.34c-0.034 0-0.061 0.028-0.061 0.061v1.228zM19.783 25.697c0 0.034 0.027 0.062 0.061 0.062h1.117c0.467 0 0.761-0.132 0.761-0.599 0-0.366-0.304-0.498-0.761-0.498h-1.117c-0.034 0-0.061 0.028-0.061 0.062v0.974zM17.55 22.997c0-0.034 0.027-0.061 0.061-0.061h3.909c1.909 0 2.315 1.076 2.315 1.817 0 0.679-0.307 1.069-0.782 1.357-0.043 0.026-0.038 0.090 0.009 0.109 0.603 0.245 1.139 0.762 1.139 1.763 0 1.452-1.259 2.204-2.539 2.204h-4.051c-0.034 0-0.061-0.028-0.061-0.062v-7.127z"></path>
<path d="M64.786 25.877l-0.419-1.797c-0.009-0.038 0.015-0.076 0.052-0.084l1.633-0.38c0.038-0.009 0.076 0.015 0.084 0.052l1.364 5.859c0.009 0.038-0.015 0.075-0.052 0.084l-1.633 0.38c-0.038 0.009-0.075-0.015-0.084-0.052l-0.418-1.798c-0.009-0.038-0.047-0.061-0.084-0.052l-4.998 1.164c-0.038 0.009-0.076-0.015-0.084-0.052l-0.464-1.991c-0.009-0.038 0.015-0.076 0.052-0.084l4.998-1.164c0.038-0.009 0.061-0.046 0.052-0.084v0zM59.696 20.674c0.017 0.038-0 0.081-0.037 0.099-0.133 0.067-0.242 0.148-0.326 0.232-0.324 0.32-0.21 0.791-0.043 1.163 0.147 0.326 0.48 0.775 0.96 0.559 0.335-0.151 0.299-0.472 0.115-1.729-0.171-1.153-0.416-2.448 0.888-3.035 1.494-0.673 2.712 0.315 3.311 1.646 0.622 1.383 0.655 2.841-0.827 3.614-0.036 0.019-0.082 0.003-0.099-0.034l-0.786-1.746c-0.017-0.037 0.003-0.079 0.041-0.094 0.21-0.085 0.306-0.252 0.337-0.443 0.044-0.216-0.012-0.462-0.102-0.662-0.122-0.272-0.394-0.682-0.757-0.52-0.445 0.244-0.129 1.213 0.029 2.242s0.14 2.125-1.046 2.659c-1.684 0.758-2.924-0.546-3.572-1.986-0.327-0.725-0.994-2.895 0.98-3.859 0.036-0.018 0.081-0.002 0.097 0.035l0.837 1.858zM56.596 15.715c0.030 0.036 0.086 0.033 0.112-0.006l1.216-1.811-0.013-0.015-2.026 0.839c-0.044 0.018-0.057 0.073-0.027 0.11l0.738 0.883zM59.083 11.584l1.306 1.563c0.019 0.023 0.022 0.055 0.007 0.080l-3.709 6.396c-0.024 0.042-0.083 0.047-0.115 0.010l-1.353-1.62c-0.020-0.024-0.022-0.058-0.005-0.084l0.528-0.79c0.017-0.026 0.015-0.060-0.005-0.084l-1.378-1.649c-0.020-0.023-0.052-0.032-0.081-0.020l-0.886 0.366c-0.028 0.012-0.061 0.004-0.081-0.020l-1.309-1.567c-0.031-0.037-0.016-0.094 0.030-0.111l6.972-2.492c0.028-0.010 0.059-0.002 0.078 0.021v0zM51.353 5.024l1.663 1.188c0.031 0.023 0.039 0.067 0.016 0.098l-2.983 4.176c-0.022 0.031-0.015 0.075 0.016 0.098l2.439 1.742c0.032 0.022 0.039 0.066 0.017 0.098l-0.975 1.364c-0.022 0.031-0.066 0.039-0.098 0.016l-4.216-3.012c-0.032-0.023-0.039-0.066-0.016-0.098l4.039-5.654c0.023-0.032 0.066-0.039 0.098-0.016v0zM40.045 0.595l5.509 1.566c0.037 0.010 0.059 0.049 0.048 0.086l-0.458 1.613c-0.011 0.037-0.049 0.059-0.087 0.048l-3.408-0.969c-0.037-0.010-0.076 0.011-0.087 0.049l-0.203 0.715c-0.011 0.037 0.011 0.076 0.048 0.087l3.083 0.876c0.038 0.011 0.059 0.049 0.049 0.087l-0.423 1.489c-0.011 0.037-0.049 0.059-0.087 0.048l-3.083-0.876c-0.037-0.011-0.076 0.011-0.087 0.048l-0.203 0.715c-0.011 0.037 0.011 0.076 0.049 0.087l3.513 0.998c0.038 0.011 0.059 0.050 0.049 0.087l-0.459 1.613c-0.011 0.037-0.049 0.059-0.087 0.048l-5.614-1.596c-0.037-0.011-0.059-0.049-0.048-0.087l1.9-6.684c0.011-0.037 0.049-0.059 0.087-0.048v0zM37.407 4.508c-0.049 1.966-1.135 2.882-3.299 2.828s-3.213-1.024-3.164-2.989l0.107-4.278c0.001-0.039 0.033-0.070 0.072-0.068l2.043 0.051c0.039 0.001 0.069 0.033 0.068 0.072l-0.095 3.791c-0.018 0.725-0.041 1.628 1.022 1.655 1.032 0.025 1.055-0.878 1.073-1.603l0.095-3.791c0.001-0.039 0.033-0.070 0.072-0.068l2.044 0.051c0.039 0.001 0.069 0.033 0.068 0.072l-0.107 4.278zM23.708 1.391l1.997-0.438c0.038-0.008 0.075 0.016 0.084 0.054l1.099 5.013c0.008 0.038 0.046 0.062 0.084 0.054l2.928-0.642c0.038-0.008 0.075 0.016 0.084 0.054l0.359 1.637c0.008 0.038-0.016 0.075-0.054 0.084l-5.062 1.11c-0.038 0.008-0.075-0.016-0.084-0.054l-1.488-6.788c-0.008-0.038 0.016-0.075 0.054-0.083v0zM20.009 8.697c0.017 0.035 0.059 0.049 0.094 0.033l1.090-0.526c0.411-0.199 0.713-0.488 0.475-0.98-0.181-0.375-0.504-0.473-0.969-0.249l-1.171 0.565c-0.035 0.017-0.050 0.059-0.033 0.094l0.513 1.063zM18.861 6.318c0.017 0.035 0.058 0.050 0.094 0.033l0.974-0.47c0.412-0.198 0.615-0.44 0.416-0.851-0.155-0.322-0.48-0.309-0.882-0.115l-0.974 0.47c-0.035 0.017-0.049 0.059-0.033 0.094l0.405 0.839zM15.754 4.908c-0.017-0.035-0.002-0.077 0.033-0.094l3.434-1.657c1.681-0.812 2.496-0.036 2.811 0.617 0.285 0.591 0.187 1.061-0.101 1.512-0.031 0.049 0.005 0.11 0.063 0.107 0.629-0.035 1.312 0.197 1.733 1.069 0.617 1.279-0.172 2.476-1.299 3.020l-3.558 1.718c-0.035 0.017-0.077 0.002-0.094-0.033l-3.021-6.259zM11.301 15.476c0.029 0.026 0.073 0.024 0.099-0.004l0.53-0.577c0.92-1.001 0.243-1.893-0.247-2.343-0.329-0.302-1.337-1.039-2.405 0.123l-0.423 0.46c-0.026 0.029-0.024 0.073 0.004 0.099l2.441 2.242zM6.045 13.614c-0.028-0.026-0.030-0.070-0.004-0.099l2.377-2.588c1.598-1.74 3.449-1.172 4.766 0.037 1.601 1.471 1.838 3.252 0.166 5.073l-2.088 2.274c-0.026 0.028-0.070 0.030-0.099 0.004l-5.117-4.7zM2.201 20.055l0.982-1.793c0.018-0.034 0.061-0.046 0.095-0.028l4.503 2.464c0.034 0.018 0.076 0.006 0.095-0.028l1.439-2.63c0.019-0.034 0.061-0.046 0.095-0.028l1.471 0.805c0.034 0.018 0.046 0.061 0.028 0.095l-2.488 4.546c-0.018 0.034-0.061 0.046-0.095 0.028l-6.097-3.337c-0.034-0.019-0.046-0.061-0.028-0.095v0zM5.61 27.055c0.141-0.538 0.003-1.457-1.524-1.858s-2.099 0.332-2.24 0.87c-0.141 0.538-0.002 1.457 1.524 1.857s2.099-0.332 2.24-0.869v0zM0.137 25.618c0.547-2.084 2.411-3.083 4.504-2.534s3.226 2.335 2.679 4.419c-0.547 2.084-2.41 3.083-4.504 2.534s-3.226-2.335-2.679-4.419v0z"></path>
</symbol>
<symbol id="icon-arrow_forward" viewBox="0 0 32 32">
<title>arrow_forward</title>
<path d="M16 5.313l10.688 10.688-10.688 10.688-1.875-1.875 7.438-7.5h-16.25v-2.625h16.25l-7.438-7.5z"></path>
</symbol>
<symbol id="icon-menu" viewBox="0 0 32 32">
<title>menu</title>
<path d="M4 8h24v2.688h-24v-2.688zM4 17.313v-2.625h24v2.625h-24zM4 24v-2.688h24v2.688h-24z"></path>
</symbol>
<symbol id="icon-play_arrow" viewBox="0 0 32 32">
<title>play_arrow</title>
<path d="M10.688 6.688l14.625 9.313-14.625 9.313v-18.625z"></path>
</symbol>
<symbol id="icon-instagram" viewBox="0 0 32 32">
<title>instagram</title>
<path d="M16 2.881c4.275 0 4.781 0.019 6.462 0.094 1.563 0.069 2.406 0.331 2.969 0.55 0.744 0.288 1.281 0.638 1.837 1.194 0.563 0.563 0.906 1.094 1.2 1.838 0.219 0.563 0.481 1.412 0.55 2.969 0.075 1.688 0.094 2.194 0.094 6.463s-0.019 4.781-0.094 6.463c-0.069 1.563-0.331 2.406-0.55 2.969-0.288 0.744-0.637 1.281-1.194 1.837-0.563 0.563-1.094 0.906-1.837 1.2-0.563 0.219-1.413 0.481-2.969 0.55-1.688 0.075-2.194 0.094-6.463 0.094s-4.781-0.019-6.463-0.094c-1.563-0.069-2.406-0.331-2.969-0.55-0.744-0.288-1.281-0.637-1.838-1.194-0.563-0.563-0.906-1.094-1.2-1.837-0.219-0.563-0.481-1.413-0.55-2.969-0.075-1.688-0.094-2.194-0.094-6.463s0.019-4.781 0.094-6.463c0.069-1.563 0.331-2.406 0.55-2.969 0.288-0.744 0.638-1.281 1.194-1.838 0.563-0.563 1.094-0.906 1.838-1.2 0.563-0.219 1.412-0.481 2.969-0.55 1.681-0.075 2.188-0.094 6.463-0.094zM16 0c-4.344 0-4.887 0.019-6.594 0.094-1.7 0.075-2.869 0.35-3.881 0.744-1.056 0.412-1.95 0.956-2.837 1.85-0.894 0.888-1.438 1.781-1.85 2.831-0.394 1.019-0.669 2.181-0.744 3.881-0.075 1.713-0.094 2.256-0.094 6.6s0.019 4.887 0.094 6.594c0.075 1.7 0.35 2.869 0.744 3.881 0.413 1.056 0.956 1.95 1.85 2.837 0.887 0.887 1.781 1.438 2.831 1.844 1.019 0.394 2.181 0.669 3.881 0.744 1.706 0.075 2.25 0.094 6.594 0.094s4.888-0.019 6.594-0.094c1.7-0.075 2.869-0.35 3.881-0.744 1.050-0.406 1.944-0.956 2.831-1.844s1.438-1.781 1.844-2.831c0.394-1.019 0.669-2.181 0.744-3.881 0.075-1.706 0.094-2.25 0.094-6.594s-0.019-4.887-0.094-6.594c-0.075-1.7-0.35-2.869-0.744-3.881-0.394-1.063-0.938-1.956-1.831-2.844-0.887-0.887-1.781-1.438-2.831-1.844-1.019-0.394-2.181-0.669-3.881-0.744-1.712-0.081-2.256-0.1-6.6-0.1v0z"></path>
<path d="M16 7.781c-4.537 0-8.219 3.681-8.219 8.219s3.681 8.219 8.219 8.219 8.219-3.681 8.219-8.219c0-4.537-3.681-8.219-8.219-8.219zM16 21.331c-2.944 0-5.331-2.387-5.331-5.331s2.387-5.331 5.331-5.331c2.944 0 5.331 2.387 5.331 5.331s-2.387 5.331-5.331 5.331z"></path>
<path d="M26.462 7.456c0 1.060-0.859 1.919-1.919 1.919s-1.919-0.859-1.919-1.919c0-1.060 0.859-1.919 1.919-1.919s1.919 0.859 1.919 1.919z"></path>
</symbol>
<symbol id="icon-twitter" viewBox="0 0 32 32">
<title>twitter</title>
<path d="M32 7.075c-1.175 0.525-2.444 0.875-3.769 1.031 1.356-0.813 2.394-2.1 2.887-3.631-1.269 0.75-2.675 1.3-4.169 1.594-1.2-1.275-2.906-2.069-4.794-2.069-3.625 0-6.563 2.938-6.563 6.563 0 0.512 0.056 1.012 0.169 1.494-5.456-0.275-10.294-2.888-13.531-6.862-0.563 0.969-0.887 2.1-0.887 3.3 0 2.275 1.156 4.287 2.919 5.463-1.075-0.031-2.087-0.331-2.975-0.819 0 0.025 0 0.056 0 0.081 0 3.181 2.263 5.838 5.269 6.437-0.55 0.15-1.131 0.231-1.731 0.231-0.425 0-0.831-0.044-1.237-0.119 0.838 2.606 3.263 4.506 6.131 4.563-2.25 1.762-5.075 2.813-8.156 2.813-0.531 0-1.050-0.031-1.569-0.094 2.913 1.869 6.362 2.95 10.069 2.95 12.075 0 18.681-10.006 18.681-18.681 0-0.287-0.006-0.569-0.019-0.85 1.281-0.919 2.394-2.075 3.275-3.394z"></path>
</symbol>
<symbol id="icon-facebook" viewBox="0 0 32 32">
<title>facebook</title>
<path d="M19 6h5v-6h-5c-3.86 0-7 3.14-7 7v3h-4v6h4v16h6v-16h5l1-6h-6v-3c0-0.542 0.458-1 1-1z"></path>
</symbol>
</defs>
</svg>
