<svg aria-hidden="true" style="position: absolute; width: 0; height: 0; overflow: hidden;" version="1.1" xmlns="http://www.w3.org/2000/svg" xmlns:xlink="http://www.w3.org/1999/xlink">
<defs>
<symbol id="icon-image" viewBox="0 0 24 24">
<title>image</title>
<path d="M19 2h-14c-1.7 0-3 1.3-3 3v14c0 1.7 1.3 3 3 3h14c1.7 0 3-1.3 3-3v-14c0-1.7-1.3-3-3-3zM4 5c0-0.6 0.4-1 1-1h14c0.6 0 1 0.4 1 1v7.6l-3.3-3.3c-0.4-0.4-1-0.4-1.4 0l-10.6 10.6c-0.4-0.1-0.7-0.5-0.7-0.9v-14zM19 20h-11.6l8.6-8.6 4 4v3.6c0 0.6-0.4 1-1 1z"></path>
<path d="M8.5 11c1.4 0 2.5-1.1 2.5-2.5s-1.1-2.5-2.5-2.5-2.5 1.1-2.5 2.5 1.1 2.5 2.5 2.5zM8.5 8c0.3 0 0.5 0.2 0.5 0.5s-0.2 0.5-0.5 0.5-0.5-0.2-0.5-0.5 0.2-0.5 0.5-0.5z"></path>
</symbol>
<symbol id="icon-log-in" viewBox="0 0 24 24">
<title>log-in</title>
<path d="M19 2h-4c-0.6 0-1 0.4-1 1s0.4 1 1 1h4c0.6 0 1 0.4 1 1v14c0 0.6-0.4 1-1 1h-4c-0.6 0-1 0.4-1 1s0.4 1 1 1h4c1.7 0 3-1.3 3-3v-14c0-1.7-1.3-3-3-3z"></path>
<path d="M15.9 12.4c0.1-0.2 0.1-0.5 0-0.8-0.1-0.1-0.1-0.2-0.2-0.3l-5-5c-0.4-0.4-1-0.4-1.4 0s-0.4 1 0 1.4l3.3 3.3h-9.6c-0.6 0-1 0.4-1 1s0.4 1 1 1h9.6l-3.3 3.3c-0.4 0.4-0.4 1 0 1.4 0.2 0.2 0.4 0.3 0.7 0.3s0.5-0.1 0.7-0.3l5-5c0.1-0.1 0.2-0.2 0.2-0.3z"></path>
</symbol>
<symbol id="icon-menu" viewBox="0 0 24 24">
<title>menu</title>
<path d="M21 11h-18c-0.6 0-1 0.4-1 1s0.4 1 1 1h18c0.6 0 1-0.4 1-1s-0.4-1-1-1z"></path>
<path d="M3 7h18c0.6 0 1-0.4 1-1s-0.4-1-1-1h-18c-0.6 0-1 0.4-1 1s0.4 1 1 1z"></path>
<path d="M21 17h-18c-0.6 0-1 0.4-1 1s0.4 1 1 1h18c0.6 0 1-0.4 1-1s-0.4-1-1-1z"></path>
</symbol>
<symbol id="icon-minus-circle" viewBox="0 0 24 24">
<title>minus-circle</title>
<path d="M12 1c-6.1 0-11 4.9-11 11s4.9 11 11 11 11-4.9 11-11-4.9-11-11-11zM12 21c-5 0-9-4-9-9s4-9 9-9c5 0 9 4 9 9s-4 9-9 9z"></path>
<path d="M16 11h-8c-0.6 0-1 0.4-1 1s0.4 1 1 1h8c0.6 0 1-0.4 1-1s-0.4-1-1-1z"></path>
</symbol>
<symbol id="icon-plus" viewBox="0 0 24 24">
<title>plus</title>
<path d="M19 11h-6v-6c0-0.6-0.4-1-1-1s-1 0.4-1 1v6h-6c-0.6 0-1 0.4-1 1s0.4 1 1 1h6v6c0 0.6 0.4 1 1 1s1-0.4 1-1v-6h6c0.6 0 1-0.4 1-1s-0.4-1-1-1z"></path>
</symbol>
<symbol id="icon-plus-circle" viewBox="0 0 24 24">
<title>plus-circle</title>
<path d="M12 1c-6.1 0-11 4.9-11 11s4.9 11 11 11 11-4.9 11-11-4.9-11-11-11zM12 21c-5 0-9-4-9-9s4-9 9-9c5 0 9 4 9 9s-4 9-9 9z"></path>
<path d="M16 11h-3v-3c0-0.6-0.4-1-1-1s-1 0.4-1 1v3h-3c-0.6 0-1 0.4-1 1s0.4 1 1 1h3v3c0 0.6 0.4 1 1 1s1-0.4 1-1v-3h3c0.6 0 1-0.4 1-1s-0.4-1-1-1z"></path>
</symbol>
<symbol id="icon-refresh-cw" viewBox="0 0 24 24">
<title>refresh-cw</title>
<path d="M20.8 14.1c-0.5-0.2-1.1 0.1-1.3 0.6-0.4 1.1-1 2.2-1.9 3-1.4 1.5-3.5 2.3-5.6 2.3 0 0 0 0 0 0-2.1 0-4.1-0.8-5.7-2.4l-2.8-2.6h3.5c0.6 0 1-0.4 1-1s-0.4-1-1-1h-6c0 0 0 0 0 0-0.1 0-0.2 0-0.2 0.1 0 0-0.1 0-0.1 0s-0.1 0-0.1 0.1c-0.1 0-0.2 0.1-0.2 0.2 0 0 0 0 0 0s0 0.1-0.1 0.1c0 0.1-0.1 0.1-0.1 0.2s0 0.1 0 0.2c0 0 0 0.1 0 0.1v6c0 0.6 0.4 1 1 1s1-0.4 1-1v-3.7l2.9 2.8c1.7 1.9 4.2 2.9 6.9 2.9 0 0 0 0 0 0 2.7 0 5.2-1 7.1-2.9 1-1 1.9-2.3 2.4-3.7 0.1-0.6-0.2-1.2-0.7-1.3z"></path>
<path d="M24 10.1c0 0 0-0.1 0-0.1v-6c0-0.6-0.4-1-1-1s-1 0.4-1 1v3.7l-2.9-2.8c-1-1-2.3-1.9-3.7-2.4-2.6-0.8-5.3-0.7-7.7 0.5-2.4 1.1-4.2 3.1-5.1 5.7-0.2 0.5 0.1 1.1 0.6 1.2 0.5 0.2 1.1-0.1 1.3-0.6 0.7-2 2.2-3.6 4.1-4.6 1.9-0.9 4.1-1 6.1-0.3 1.1 0.4 2.2 1 3 1.9l2.8 2.7h-3.5c-0.6 0-1 0.4-1 1s0.4 1 1 1h6c0.1 0 0.3 0 0.4-0.1 0 0 0 0 0 0 0.1-0.1 0.2-0.1 0.3-0.2 0 0 0 0 0 0s0-0.1 0.1-0.1c0-0.1 0.1-0.1 0.1-0.2 0.1-0.1 0.1-0.2 0.1-0.3z"></path>
</symbol>
<symbol id="icon-settings" viewBox="0 0 24 24">
<title>settings</title>
<path d="M12 8c-2.2 0-4 1.8-4 4s1.8 4 4 4c2.2 0 4-1.8 4-4s-1.8-4-4-4zM12 14c-1.1 0-2-0.9-2-2s0.9-2 2-2c1.1 0 2 0.9 2 2s-0.9 2-2 2z"></path>
<path d="M20.3 15.4c0.1-0.2 0.3-0.4 0.7-0.4 1.7 0 3-1.3 3-3s-1.3-3-3-3h-0.2c-0.2 0-0.4-0.1-0.5-0.3 0-0.1 0-0.1-0.1-0.2-0.1-0.2-0.1-0.5 0.2-0.8 1.2-1.2 1.2-3.1 0-4.2v0c0 0 0 0 0 0-0.6-0.6-1.3-0.9-2.1-0.9 0 0 0 0 0 0-0.8 0-1.6 0.3-2.2 0.9-0.2 0.2-0.5 0.2-0.7 0.1-0.2 0-0.4-0.3-0.4-0.6 0-1.7-1.3-3-3-3s-3 1.3-3 3v0.2c0 0.2-0.1 0.4-0.3 0.5-0.1 0-0.1 0-0.2 0.1-0.2 0.1-0.5 0-0.8-0.2-1.2-1.2-3.1-1.2-4.2 0-1.2 1.2-1.2 3.1 0.1 4.3 0.2 0.2 0.2 0.5 0.1 0.8-0.1 0.2-0.4 0.4-0.7 0.4-1.7 0-3 1.3-3 3s1.3 3 3 3h0.2c0.3 0 0.5 0.2 0.6 0.4s0.1 0.5-0.2 0.8c-0.6 0.6-0.9 1.3-0.9 2.1s0.3 1.5 0.9 2.1c0 0 0 0 0 0 1.2 1.2 3.1 1.2 4.3-0.1 0.2-0.2 0.5-0.2 0.8-0.1s0.4 0.3 0.4 0.7c0 1.7 1.3 3 3 3s3-1.3 3-3v-0.2c0-0.3 0.2-0.5 0.4-0.6s0.5-0.1 0.8 0.2c1.2 1.2 3.1 1.2 4.2 0 1.2-1.2 1.2-3.1-0.1-4.3-0.1-0.2-0.2-0.5-0.1-0.7 0 0 0 0 0 0zM18.5 14.6c-0.4 1-0.2 2.1 0.6 3 0.2 0.2 0.3 0.4 0.3 0.7s-0.1 0.5-0.3 0.7c-0.2 0.2-0.4 0.3-0.7 0.3 0 0 0 0 0 0-0.3 0-0.5-0.1-0.8-0.4-0.8-0.8-1.9-1-2.9-0.5-1 0.4-1.6 1.4-1.6 2.4v0.2c0 0.6-0.4 1-1 1s-1-0.4-1-1c0 0 0-0.1 0-0.1 0-1.1-0.7-2-1.7-2.4-0.3-0.2-0.7-0.2-1.1-0.2-0.7 0-1.4 0.3-1.9 0.8-0.4 0.4-1 0.4-1.4 0 0 0 0 0 0 0v0c-0.2-0.2-0.3-0.4-0.3-0.7s0.1-0.5 0.4-0.8c0.8-0.8 1-1.9 0.5-2.9-0.4-1-1.4-1.6-2.4-1.6h-0.2c-0.6 0-1-0.4-1-1s0.4-1 1-1c0 0 0.1 0 0.1 0 1.1 0 2-0.7 2.4-1.7s0.2-2.1-0.6-3c-0.4-0.4-0.4-1 0-1.4s1-0.4 1.5 0.1c0.7 0.7 1.8 0.9 2.7 0.6 0.1 0 0.2 0 0.3-0.1 1-0.4 1.6-1.4 1.6-2.4v-0.2c0-0.6 0.4-1 1-1s1 0.4 1 1.1c0 1.1 0.6 2 1.6 2.4s2.1 0.2 3-0.6c0.2-0.2 0.4-0.3 0.7-0.3v0c0.3 0 0.5 0.1 0.7 0.3 0 0 0 0 0 0 0.4 0.4 0.4 1-0.1 1.5-0.7 0.7-0.9 1.8-0.6 2.7 0 0.1 0 0.2 0.1 0.3 0.4 1 1.4 1.6 2.4 1.6h0.2c0.6 0 1 0.4 1 1s-0.4 1-1.1 1c-1 0-2 0.6-2.4 1.6z"></path>
</symbol>
<symbol id="icon-shopping-bag" viewBox="0 0 24 24">
<title>shopping-bag</title>
<path d="M21.9 5.6c0 0 0-0.1-0.1-0.1 0 0 0-0.1-0.1-0.1l-3-4c-0.1-0.3-0.4-0.4-0.7-0.4h-12c-0.3 0-0.6 0.1-0.8 0.4l-3 4c0 0 0 0.1-0.1 0.1 0 0 0 0.1-0.1 0.1 0 0.2 0 0.3 0 0.4v14c0 1.7 1.3 3 3 3h14c1.7 0 3-1.3 3-3v-14c0-0.1 0-0.2-0.1-0.4zM6.5 3h11l1.5 2h-14l1.5-2zM19 21h-14c-0.6 0-1-0.4-1-1v-13h16v13c0 0.6-0.4 1-1 1z"></path>
<path d="M16 9c-0.6 0-1 0.4-1 1 0 1.7-1.3 3-3 3s-3-1.3-3-3c0-0.6-0.4-1-1-1s-1 0.4-1 1c0 2.8 2.2 5 5 5s5-2.2 5-5c0-0.6-0.4-1-1-1z"></path>
</symbol>
<symbol id="icon-shopping-cart" viewBox="0 0 24 24">
<title>shopping-cart</title>
<path d="M11 21c0 1.105-0.895 2-2 2s-2-0.895-2-2c0-1.105 0.895-2 2-2s2 0.895 2 2z"></path>
<path d="M22 21c0 1.105-0.895 2-2 2s-2-0.895-2-2c0-1.105 0.895-2 2-2s2 0.895 2 2z"></path>
<path d="M23.8 5.4c-0.2-0.3-0.5-0.4-0.8-0.4h-16.2l-0.8-4.2c-0.1-0.5-0.5-0.8-1-0.8h-4c-0.6 0-1 0.4-1 1s0.4 1 1 1h3.2l0.8 4.2c0 0 0 0.1 0 0.1l1.7 8.3c0.3 1.4 1.5 2.4 2.9 2.4 0 0 0 0 0.1 0h9.7c1.5 0 2.7-1 3-2.4l1.6-8.4c0-0.3 0-0.6-0.2-0.8zM20.4 14.2c-0.1 0.5-0.5 0.8-1 0.8h-9.7c-0.5 0-0.9-0.3-1-0.8l-1.5-7.2h14.6l-1.4 7.2z"></path>
</symbol>
<symbol id="icon-trash-2" viewBox="0 0 24 24">
<title>trash-2</title>
<path d="M21 5h-4v-1c0-1.7-1.3-3-3-3h-4c-1.7 0-3 1.3-3 3v1h-4c-0.6 0-1 0.4-1 1s0.4 1 1 1h1v13c0 1.7 1.3 3 3 3h10c1.7 0 3-1.3 3-3v-13h1c0.6 0 1-0.4 1-1s-0.4-1-1-1zM9 4c0-0.6 0.4-1 1-1h4c0.6 0 1 0.4 1 1v1h-6v-1zM18 20c0 0.6-0.4 1-1 1h-10c-0.6 0-1-0.4-1-1v-13h12v13z"></path>
<path d="M10 10c-0.6 0-1 0.4-1 1v6c0 0.6 0.4 1 1 1s1-0.4 1-1v-6c0-0.6-0.4-1-1-1z"></path>
<path d="M14 10c-0.6 0-1 0.4-1 1v6c0 0.6 0.4 1 1 1s1-0.4 1-1v-6c0-0.6-0.4-1-1-1z"></path>
</symbol>
<symbol id="icon-user" viewBox="0 0 24 24">
<title>user</title>
<path d="M16 14h-8c-2.8 0-5 2.2-5 5v2c0 0.6 0.4 1 1 1s1-0.4 1-1v-2c0-1.7 1.3-3 3-3h8c1.7 0 3 1.3 3 3v2c0 0.6 0.4 1 1 1s1-0.4 1-1v-2c0-2.8-2.2-5-5-5z"></path>
<path d="M12 12c2.8 0 5-2.2 5-5s-2.2-5-5-5-5 2.2-5 5 2.2 5 5 5zM12 4c1.7 0 3 1.3 3 3s-1.3 3-3 3-3-1.3-3-3 1.3-3 3-3z"></path>
</symbol>
<symbol id="icon-close" viewBox="0 0 24 24">
<title>close</title>
<path d="M13.4 12l5.3-5.3c0.4-0.4 0.4-1 0-1.4s-1-0.4-1.4 0l-5.3 5.3-5.3-5.3c-0.4-0.4-1-0.4-1.4 0s-0.4 1 0 1.4l5.3 5.3-5.3 5.3c-0.4 0.4-0.4 1 0 1.4 0.2 0.2 0.4 0.3 0.7 0.3s0.5-0.1 0.7-0.3l5.3-5.3 5.3 5.3c0.2 0.2 0.5 0.3 0.7 0.3s0.5-0.1 0.7-0.3c0.4-0.4 0.4-1 0-1.4l-5.3-5.3z"></path>
</symbol>
<symbol id="icon-logo" viewBox="0 0 138 24">
<title>logo</title>
<path d="M7.231 8.169l3.543 15.057h-3.304l-2.35-10.73-1.363 3.713v7.017h-3.168v-22.721h3.168v8.55l3.1-8.55h3.236l-2.861 7.665zM18.54 18.116l-0.545 5.11h-3.066l3.1-22.721h4.088l2.964 22.721h-3.1l-0.579-5.11h-2.861zM21.061 15.153l-1.090-10.526-1.090 10.526h2.18zM29.918 0.505h3.1c2.555 0 3.713 0.409 4.633 1.567 0.818 1.090 1.192 2.589 1.192 4.769 0 2.861-0.307 3.849-1.601 5.518l2.214 10.867h-3.406l-1.839-9.777c-0.545 0.102-0.647 0.102-1.124 0.136v9.64h-3.168v-22.721zM33.086 10.383h0.443c1.022 0 1.601-0.238 1.908-0.818 0.238-0.443 0.307-1.022 0.307-3.066 0-2.453-0.443-3.032-2.214-3.032h-0.443v6.915zM50.323 11.814l2.248-11.309h3.815v22.721h-2.725v-16.044l-2.657 16.044h-1.363l-2.657-16.044v16.044h-2.657v-22.721h3.747l2.248 11.309zM64.834 18.116l-0.545 5.11h-3.066l3.1-22.721h4.088l2.964 22.721h-3.1l-0.579-5.11h-2.861zM67.355 15.153l-1.090-10.526-1.090 10.526h2.18zM90.451 15.153h3.168c0.068 1.363 0.068 1.839 0.068 2.385 0 4.020-1.533 6.029-4.599 6.029-2.964 0-4.462-1.839-4.462-5.45v-12.502c0-3.611 1.499-5.45 4.462-5.45 3.066 0 4.599 1.976 4.599 5.927 0 0.443-0.034 0.886-0.068 1.805h-3.168c0.068-0.749 0.068-1.090 0.068-1.567 0-2.521-0.307-3.202-1.431-3.202-1.022 0-1.294 0.511-1.294 2.487v12.502c0 1.976 0.273 2.487 1.294 2.487 1.124 0 1.431-0.681 1.431-3.1 0-0.579-0.034-1.226-0.068-2.35zM101.896 18.116l-0.545 5.11h-3.066l3.1-22.721h4.088l2.964 22.721h-3.1l-0.579-5.11h-2.861zM104.417 15.153l-1.090-10.526-1.090 10.526h2.18zM123.357 0.505v22.721h-3.168l-3.747-11.923v11.923h-3.168v-22.721h2.725l4.19 13.387v-13.387h3.168zM128.16 16.651l3.134-0.136v0.988c0 2.35 0.409 3.1 1.635 3.1 0.92 0 1.431-0.783 1.431-2.248s-0.409-2.385-1.942-4.462l-1.567-2.316c-1.942-2.93-2.589-4.497-2.589-6.506 0-2.998 1.805-4.905 4.667-4.905 2.146 0 3.713 1.26 4.122 3.304 0.17 0.818 0.204 1.056 0.204 2.827l-3.1 0.307c0-1.158-0.034-1.567-0.102-2.044-0.102-0.92-0.613-1.431-1.329-1.431-0.852 0-1.329 0.749-1.329 2.112 0 1.397 0.17 1.737 2.248 4.871l1.601 2.316c1.465 2.146 2.282 4.462 2.282 6.404 0 3.032-1.669 4.735-4.633 4.735-1.703 0-2.895-0.545-3.781-1.737-0.749-1.022-0.988-1.976-0.988-3.951 0-0.375 0-0.681 0.034-1.226z"></path>
</symbol>
<symbol id="icon-twitter" viewBox="0 0 24 24">
<title>twitter</title>
<path d="M23.6 2.2c-0.3-0.2-0.8-0.2-1.1 0-0.7 0.5-1.5 0.9-2.3 1.2-2-1.8-5.1-1.9-7.2-0.1-1.3 1.1-2 2.6-2 4.2-2.9-0.2-5.5-1.7-7.2-4.1-0.2-0.3-0.5-0.4-0.9-0.4s-0.7 0.3-0.8 0.6c-0.1 0.1-1.1 2.5-1 5.4 0.1 2.5 1.1 5.7 4.8 8-1.5 0.7-3.2 1-4.9 1-0.4 0-0.9 0.3-1 0.7s0.1 0.9 0.5 1.1c2.5 1.4 5.2 2.1 7.7 2.1s4.9-0.6 7.1-1.9c4.3-2.4 6.7-7 6.7-12.5 0-0.2 0-0.3 0-0.5 1-1.1 1.7-2.4 2-3.8 0.1-0.4-0.1-0.8-0.4-1zM20.2 6c-0.2 0.2-0.3 0.6-0.3 0.9 0.1 0.2 0.1 0.4 0.1 0.6 0 4.8-2.1 8.7-5.7 10.8-2.8 1.6-6.1 2-9.4 1.2 1.3-0.4 2.5-0.9 3.6-1.7 0.4-0.2 0.5-0.5 0.5-0.9s-0.3-0.7-0.6-0.8c-5.8-2.6-5.6-7.5-5-10 2.2 2.2 5.3 3.5 8.6 3.4 0.5 0 1-0.5 1-1v-1c0-1 0.4-2 1.2-2.7 1.4-1.3 3.7-1.1 4.9 0.3 0.3 0.3 0.7 0.4 1 0.3 0.2-0.1 0.5-0.1 0.7-0.2-0.2 0.3-0.4 0.5-0.6 0.8z"></path>
</symbol>
<symbol id="icon-instagram" viewBox="0 0 24 24">
<title>instagram</title>
<path d="M17 1h-10c-3.3 0-6 2.7-6 6v10c0 3.3 2.7 6 6 6h10c3.3 0 6-2.7 6-6v-10c0-3.3-2.7-6-6-6zM21 17c0 2.2-1.8 4-4 4h-10c-2.2 0-4-1.8-4-4v-10c0-2.2 1.8-4 4-4h10c2.2 0 4 1.8 4 4v10z"></path>
<path d="M12.8 7c-0.5-0.1-1-0.1-1.5 0-2.7 0.4-4.6 3-4.2 5.7 0.2 1.3 0.9 2.5 2 3.3 0.9 0.6 1.9 1 3 1 0.2 0 0.5 0 0.7-0.1 1.3-0.2 2.5-0.9 3.3-2s1.1-2.4 0.9-3.7c-0.3-2.2-2-3.9-4.2-4.2zM14.5 13.7c-0.5 0.6-1.2 1.1-2 1.2-1.6 0.2-3.2-0.9-3.4-2.5-0.3-1.6 0.9-3.2 2.5-3.4 0.1 0 0.3 0 0.4 0s0.3 0 0.4 0c1.3 0.2 2.3 1.2 2.5 2.5 0.2 0.8 0 1.6-0.4 2.2z"></path>
<path d="M16.8 5.8c-0.2 0.2-0.3 0.4-0.3 0.7s0.1 0.5 0.3 0.7c0.2 0.2 0.5 0.3 0.7 0.3 0.3 0 0.5-0.1 0.7-0.3s0.3-0.5 0.3-0.7c0-0.3-0.1-0.5-0.3-0.7-0.4-0.4-1-0.4-1.4 0z"></path>
</symbol>
<symbol id="icon-facebook" viewBox="0 0 24 24">
<title>facebook</title>
<path d="M18 7c0.6 0 1-0.4 1-1v-4c0-0.6-0.4-1-1-1h-3c-3.3 0-6 2.7-6 6v2h-2c-0.6 0-1 0.4-1 1v4c0 0.6 0.4 1 1 1h2v7c0 0.6 0.4 1 1 1h4c0.6 0 1-0.4 1-1v-7h2c0.5 0 0.9-0.3 1-0.8l1-4c0.1-0.3 0-0.6-0.2-0.9s-0.5-0.3-0.8-0.3h-3v-2h3zM14 11h2.7l-0.5 2h-2.2c-0.6 0-1 0.4-1 1v7h-2v-7c0-0.6-0.4-1-1-1h-2v-2h2c0.6 0 1-0.4 1-1v-3c0-2.2 1.8-4 4-4h2v2h-2c-1.1 0-2 0.9-2 2v3c0 0.6 0.4 1 1 1z"></path>
</symbol>
<symbol id="icon-user2" viewBox="0 0 24 24">
<title>user2</title>
<path d="M11.4 13.2c-3.639 0-6.6-2.961-6.6-6.6s2.961-6.6 6.6-6.6 6.6 2.961 6.6 6.6-2.961 6.6-6.6 6.6zM11.4 1.2c-2.978 0-5.4 2.422-5.4 5.4s2.422 5.4 5.4 5.4c2.978 0 5.4-2.422 5.4-5.4s-2.422-5.4-5.4-5.4z"></path>
<path d="M21 24h-19.2c-0.993 0-1.8-0.807-1.8-1.8 0-0.082 0.017-2.022 1.47-3.96 0.846-1.128 2.004-2.024 3.443-2.663 1.757-0.781 3.939-1.177 6.487-1.177s4.731 0.396 6.487 1.177c1.438 0.639 2.597 1.535 3.443 2.663 1.453 1.938 1.47 3.878 1.47 3.96 0 0.993-0.807 1.8-1.8 1.8zM11.4 15.6c-4.184 0-7.272 1.143-8.93 3.307-1.242 1.621-1.27 3.279-1.27 3.296 0 0.328 0.269 0.598 0.6 0.598h19.2c0.331 0 0.6-0.269 0.6-0.6-0-0.014-0.028-1.672-1.27-3.293-1.658-2.163-4.746-3.307-8.93-3.307z"></path>
</symbol>
<symbol id="icon-dinner" viewBox="0 0 24 24">
<title>dinner</title>
<path d="M9.6 0.6c0-0.331-0.269-0.6-0.6-0.6s-0.6 0.269-0.6 0.6c0 1.567 0.303 2.876 0.546 3.928 0.237 1.025 0.424 1.835 0.156 2.173-0.223 0.281-0.86 0.444-1.897 0.487-0.003-0.195-0.004-0.391-0.004-0.588v-4.8c0-0.331-0.269-0.6-0.6-0.6s-0.6 0.269-0.6 0.6v4.8c0 0.197-0.002 0.393-0.004 0.588-1.034-0.044-1.669-0.209-1.893-0.49-0.27-0.339-0.083-1.15 0.154-2.177 0.242-1.050 0.543-2.358 0.543-3.921 0-0.331-0.269-0.6-0.6-0.6s-0.6 0.269-0.6 0.6c0 1.426-0.284 2.66-0.513 3.651-0.309 1.342-0.554 2.402 0.077 3.194 0.468 0.588 1.321 0.88 2.8 0.942-0.135 3.348-0.62 6.228-1.022 8.612-0.535 3.172-0.888 5.268 0.014 6.335 0.373 0.442 0.927 0.666 1.644 0.666s1.271-0.224 1.644-0.666c0.903-1.068 0.549-3.165 0.014-6.34-0.401-2.382-0.886-5.261-1.021-8.606 1.482-0.060 2.336-0.351 2.804-0.94 0.629-0.791 0.384-1.85 0.074-3.19-0.229-0.993-0.515-2.228-0.515-3.658zM7.328 22.559c-0.087 0.103-0.258 0.241-0.728 0.241s-0.64-0.137-0.727-0.24c-0.543-0.642-0.174-2.829 0.253-5.361 0.154-0.915 0.321-1.902 0.475-2.961 0.154 1.057 0.32 2.042 0.474 2.955 0.427 2.535 0.796 4.724 0.253 5.366z"></path>
<path d="M19.058 16.994c-0.471-2.797-1.058-6.277-1.058-10.394v-6c0-0.272-0.183-0.51-0.446-0.58s-0.54 0.046-0.675 0.282c-2.423 4.24-3.62 10.717-3.669 10.99-0.032 0.175 0.016 0.355 0.13 0.492s0.283 0.216 0.461 0.216h2.682c-0.21 1.853-0.491 3.521-0.74 4.999-0.535 3.172-0.888 5.268 0.014 6.335 0.373 0.442 0.927 0.666 1.644 0.666s1.27-0.224 1.644-0.666c0.903-1.068 0.549-3.165 0.014-6.34zM14.533 10.8c0.297-1.405 1.059-4.664 2.267-7.58v3.38c0 1.483-0.076 2.884-0.195 4.2h-2.072zM18.128 22.559c-0.087 0.103-0.258 0.241-0.728 0.241s-0.64-0.137-0.727-0.24c-0.543-0.642-0.174-2.829 0.253-5.361 0.154-0.915 0.321-1.902 0.475-2.961 0.154 1.057 0.32 2.042 0.474 2.955 0.427 2.535 0.796 4.724 0.253 5.366z"></path>
</symbol>
<symbol id="icon-scales" viewBox="0 0 24 24">
<title>scales</title>
<path d="M12 13.303v-1.903c0-0.331-0.269-0.6-0.6-0.6s-0.6 0.269-0.6 0.6v1.903c-0.698 0.248-1.2 0.915-1.2 1.697 0 0.993 0.807 1.8 1.8 1.8s1.8-0.807 1.8-1.8c0-0.782-0.502-1.449-1.2-1.697zM11.4 15.6c-0.331 0-0.6-0.269-0.6-0.6s0.269-0.6 0.6-0.6 0.6 0.269 0.6 0.6-0.269 0.6-0.6 0.6z"></path>
<path d="M11.4 9.6c-2.978 0-5.4 2.422-5.4 5.4s2.422 5.4 5.4 5.4c2.978 0 5.4-2.422 5.4-5.4s-2.422-5.4-5.4-5.4zM12 19.157v-0.557c0-0.331-0.269-0.6-0.6-0.6s-0.6 0.269-0.6 0.6v0.557c-1.837-0.264-3.293-1.72-3.557-3.557h0.557c0.331 0 0.6-0.269 0.6-0.6s-0.269-0.6-0.6-0.6h-0.557c0.292-2.033 2.045-3.6 4.157-3.6s3.865 1.567 4.157 3.6h-0.557c-0.331 0-0.6 0.269-0.6 0.6s0.269 0.6 0.6 0.6h0.557c-0.264 1.837-1.72 3.293-3.557 3.557z"></path>
<path d="M21 0h-19.2c-0.331 0-0.6 0.269-0.6 0.6v1.2c0 1.654 1.346 3 3 3h5.4v1.379c-1.718 0.347-3.297 1.189-4.564 2.457-1.7 1.7-2.636 3.96-2.636 6.364v7.2c0 0.993 0.807 1.8 1.8 1.8h14.4c0.993 0 1.8-0.807 1.8-1.8v-7.2c0-2.404-0.936-4.664-2.636-6.364-1.267-1.267-2.846-2.11-4.564-2.457l-0.001-1.379h5.401c1.654 0 3-1.346 3-3v-1.2c0-0.331-0.269-0.6-0.6-0.6zM19.2 15v7.2c0 0.331-0.269 0.6-0.6 0.6h-14.4c-0.331 0-0.6-0.269-0.6-0.6v-7.2c0-4.301 3.499-7.8 7.8-7.8s7.8 3.499 7.8 7.8zM12 6.020c-0.199-0.013-0.399-0.020-0.6-0.020s-0.401 0.007-0.6 0.020v-1.22h1.199l0.001 1.22zM20.4 1.8c0 0.993-0.807 1.8-1.8 1.8h-14.4c-0.993 0-1.8-0.807-1.8-1.8v-0.6h18v0.6z"></path>
</symbol>
<symbol id="icon-bicycle" viewBox="0 0 24 24">
<title>bicycle</title>
<path d="M19.8 15.6c-0.75 0-1.454 0.198-2.065 0.544l-1.877-2.431 0.734-1.712h0.807c0.331 0 0.6-0.269 0.6-0.6s-0.269-0.6-0.6-0.6h-1.196c-0.002 0-0.005 0-0.007 0h-1.197c-0.331 0-0.6 0.269-0.6 0.6s0.269 0.6 0.6 0.6h0.287l-0.515 1.2h-6.51l-0.292-0.379 0.572-1.281c0.205-0.459 0.634-0.74 0.799-0.74h0.858c0.331 0 0.6-0.269 0.6-0.6s-0.269-0.6-0.6-0.6h-0.858c-0.711 0-1.526 0.624-1.895 1.451l-0.717 1.608c-0.001 0.002-0.001 0.003-0.002 0.005l-1.381 3.095c-0.364-0.104-0.749-0.159-1.146-0.159-2.316 0-4.2 1.884-4.2 4.2s1.884 4.2 4.2 4.2 4.2-1.884 4.2-4.2c0-1.492-0.783-2.805-1.959-3.55l0.974-2.184 3.668 4.752c-0.185 0.283-0.294 0.62-0.294 0.982 0 0.993 0.81 1.8 1.805 1.8 0.784 0 1.453-0.502 1.701-1.2h1.347c0.292 2.033 2.045 3.6 4.157 3.6 2.316 0 4.2-1.884 4.2-4.2s-1.884-4.2-4.2-4.2zM7.2 19.8c0 1.654-1.346 3-3 3s-3-1.346-3-3 1.346-3 3-3c0.223 0 0.44 0.025 0.65 0.072l-1.198 2.684c-0.135 0.303 0.001 0.657 0.303 0.792 0.079 0.035 0.162 0.052 0.244 0.052 0.23 0 0.449-0.132 0.548-0.356l1.197-2.683c0.759 0.545 1.255 1.434 1.255 2.438zM13.816 18.476l1.501-3.501 1.469 1.903c-0.602 0.621-1.015 1.426-1.143 2.322h-1.347c-0.099-0.279-0.266-0.527-0.481-0.724zM17.53 17.842l1.049 1.358h-1.719c0.104-0.512 0.34-0.977 0.67-1.358zM14.258 14.4l-1.546 3.604c-0.039-0.002-0.078-0.004-0.117-0.004-0.195 0-0.382 0.031-0.558 0.089l-2.847-3.689h5.069zM12.595 20.4c-0.334 0-0.605-0.269-0.605-0.6s0.271-0.6 0.605-0.6 0.605 0.269 0.605 0.6-0.271 0.6-0.605 0.6zM19.8 22.8c-1.449 0-2.661-1.032-2.94-2.4h2.94c0.229 0 0.438-0.13 0.539-0.335s0.076-0.45-0.064-0.631l-1.796-2.326c0.399-0.196 0.847-0.307 1.321-0.307 1.654 0 3 1.346 3 3s-1.346 3-3 3z"></path>
</symbol>
<symbol id="icon-arrow-right" viewBox="0 0 24 24">
<title>arrow-right</title>
<path d="M23.224 12.176l-7.2-7.2c-0.234-0.234-0.614-0.234-0.849 0s-0.234 0.614 0 0.849l6.176 6.176h-19.551c-0.331 0-0.6 0.269-0.6 0.6s0.269 0.6 0.6 0.6h19.551l-6.176 6.176c-0.234 0.234-0.234 0.614 0 0.849 0.117 0.117 0.271 0.176 0.424 0.176s0.307-0.059 0.424-0.176l7.2-7.2c0.234-0.234 0.234-0.614 0-0.848z"></path>
</symbol>
</defs>
</svg>
